<svg width="538" height="388" viewBox="0 0 538 388" fill="none" xmlns="http://www.w3.org/2000/svg">
<g filter="url(#filter0_d)">
<circle cx="213.971" cy="304.253" r="27.9086" fill="url(#paint0_radial)"/>
</g>
<path fill-rule="evenodd" clip-rule="evenodd" d="M225.473 304.253C225.473 307.303 224.261 310.229 222.104 312.386C219.947 314.543 217.022 315.754 213.971 315.754C210.921 315.754 207.995 314.543 205.838 312.386C203.681 310.229 202.469 307.303 202.469 304.253C202.469 301.202 203.681 298.277 205.838 296.12C207.995 293.963 210.921 292.751 213.971 292.751C217.022 292.751 219.947 293.963 222.104 296.12C224.261 298.277 225.473 301.202 225.473 304.253V304.253ZM213.971 299.939C213.719 299.939 213.47 300.006 213.252 300.132C213.033 300.258 212.851 300.44 212.725 300.658C212.633 300.828 212.509 300.977 212.359 301.098C212.209 301.218 212.036 301.308 211.851 301.36C211.666 301.413 211.472 301.427 211.281 301.404C211.09 301.38 210.906 301.318 210.739 301.222C210.573 301.126 210.427 300.997 210.311 300.843C210.195 300.69 210.111 300.514 210.064 300.328C210.017 300.141 210.008 299.947 210.038 299.757C210.067 299.567 210.135 299.384 210.236 299.221C210.711 298.398 211.444 297.756 212.321 297.392C213.198 297.029 214.17 296.965 215.087 297.211C216.005 297.457 216.815 297.998 217.393 298.752C217.971 299.505 218.284 300.428 218.284 301.377C218.285 302.269 218.008 303.14 217.493 303.869C216.978 304.597 216.25 305.148 215.409 305.446V305.69C215.409 306.072 215.257 306.437 214.988 306.707C214.718 306.977 214.352 307.128 213.971 307.128C213.59 307.128 213.224 306.977 212.955 306.707C212.685 306.437 212.533 306.072 212.533 305.69V304.253C212.533 303.871 212.685 303.506 212.955 303.236C213.224 302.966 213.59 302.815 213.971 302.815C214.352 302.815 214.718 302.663 214.988 302.394C215.257 302.124 215.409 301.758 215.409 301.377C215.409 300.996 215.257 300.63 214.988 300.361C214.718 300.091 214.352 299.939 213.971 299.939ZM213.971 311.441C214.352 311.441 214.718 311.29 214.988 311.02C215.257 310.75 215.409 310.385 215.409 310.003C215.409 309.622 215.257 309.256 214.988 308.987C214.718 308.717 214.352 308.566 213.971 308.566C213.59 308.566 213.224 308.717 212.955 308.987C212.685 309.256 212.533 309.622 212.533 310.003C212.533 310.385 212.685 310.75 212.955 311.02C213.224 311.29 213.59 311.441 213.971 311.441V311.441Z" fill="white"/>
<g filter="url(#filter1_d)">
<circle cx="321.619" cy="192.618" r="32.8923" fill="url(#paint1_radial)"/>
</g>
<path fill-rule="evenodd" clip-rule="evenodd" d="M335.174 192.618C335.174 196.213 333.746 199.661 331.204 202.203C328.662 204.746 325.214 206.174 321.619 206.174C318.023 206.174 314.576 204.746 312.033 202.203C309.491 199.661 308.063 196.213 308.063 192.618C308.063 189.023 309.491 185.575 312.033 183.033C314.576 180.491 318.023 179.063 321.619 179.063C325.214 179.063 328.662 180.491 331.204 183.033C333.746 185.575 335.174 189.023 335.174 192.618V192.618ZM321.619 187.535C321.321 187.535 321.028 187.613 320.77 187.761C320.513 187.91 320.298 188.124 320.15 188.382C320.042 188.582 319.896 188.758 319.719 188.9C319.542 189.042 319.338 189.147 319.12 189.209C318.902 189.271 318.674 189.289 318.448 189.261C318.223 189.233 318.006 189.16 317.81 189.046C317.613 188.933 317.442 188.781 317.305 188.6C317.168 188.419 317.069 188.212 317.014 187.992C316.959 187.772 316.948 187.544 316.983 187.319C317.018 187.095 317.097 186.88 317.216 186.688C317.776 185.719 318.64 184.961 319.673 184.533C320.707 184.105 321.853 184.03 322.934 184.319C324.015 184.609 324.97 185.247 325.651 186.135C326.333 187.023 326.702 188.11 326.702 189.229C326.702 190.281 326.377 191.307 325.77 192.165C325.163 193.024 324.304 193.674 323.313 194.025V194.313C323.313 194.762 323.135 195.193 322.817 195.511C322.499 195.829 322.068 196.007 321.619 196.007C321.169 196.007 320.738 195.829 320.42 195.511C320.103 195.193 319.924 194.762 319.924 194.313V192.618C319.924 192.169 320.103 191.738 320.42 191.42C320.738 191.102 321.169 190.924 321.619 190.924C322.068 190.924 322.499 190.745 322.817 190.427C323.135 190.11 323.313 189.679 323.313 189.229C323.313 188.78 323.135 188.349 322.817 188.031C322.499 187.713 322.068 187.535 321.619 187.535ZM321.619 201.09C322.068 201.09 322.499 200.912 322.817 200.594C323.135 200.276 323.313 199.845 323.313 199.396C323.313 198.947 323.135 198.516 322.817 198.198C322.499 197.88 322.068 197.702 321.619 197.702C321.169 197.702 320.738 197.88 320.42 198.198C320.103 198.516 319.924 198.947 319.924 199.396C319.924 199.845 320.103 200.276 320.42 200.594C320.738 200.912 321.169 201.09 321.619 201.09V201.09Z" fill="white"/>
<g filter="url(#filter2_d)">
<circle cx="317.133" cy="289.8" r="26.4135" fill="url(#paint2_radial)"/>
</g>
<g filter="url(#filter3_d)">
<circle cx="249.355" cy="348.607" r="23.4233" fill="url(#paint3_radial)"/>
</g>
<g filter="url(#filter4_d)">
<circle cx="203.505" cy="199.097" r="23.4233" fill="url(#paint4_radial)"/>
</g>
<g filter="url(#filter5_d)">
<circle cx="66.5" cy="34.5" r="19.5" fill="url(#paint5_radial)"/>
</g>
<g filter="url(#filter6_d)">
<circle cx="28" cy="85" r="13" fill="url(#paint6_radial)"/>
</g>
<g filter="url(#filter7_d)">
<circle cx="466.5" cy="51.5" r="19.5" fill="url(#paint7_radial)"/>
</g>
<g filter="url(#filter8_d)">
<circle cx="510" cy="100" r="13" fill="url(#paint8_radial)"/>
</g>
<defs>
<filter id="filter0_d" x="171.062" y="261.344" width="85.8172" height="85.8172" filterUnits="userSpaceOnUse" color-interpolation-filters="sRGB">
<feFlood flood-opacity="0" result="BackgroundImageFix"/>
<feColorMatrix in="SourceAlpha" type="matrix" values="0 0 0 0 0 0 0 0 0 0 0 0 0 0 0 0 0 0 127 0"/>
<feOffset/>
<feGaussianBlur stdDeviation="7.5"/>
<feColorMatrix type="matrix" values="0 0 0 0 0.979167 0 0 0 0 0.310069 0 0 0 0 0.671382 0 0 0 0.5 0"/>
<feBlend mode="normal" in2="BackgroundImageFix" result="effect1_dropShadow"/>
<feBlend mode="normal" in="SourceGraphic" in2="effect1_dropShadow" result="shape"/>
</filter>
<filter id="filter1_d" x="273.726" y="144.726" width="95.7846" height="95.7846" filterUnits="userSpaceOnUse" color-interpolation-filters="sRGB">
<feFlood flood-opacity="0" result="BackgroundImageFix"/>
<feColorMatrix in="SourceAlpha" type="matrix" values="0 0 0 0 0 0 0 0 0 0 0 0 0 0 0 0 0 0 127 0"/>
<feOffset/>
<feGaussianBlur stdDeviation="7.5"/>
<feColorMatrix type="matrix" values="0 0 0 0 0.979167 0 0 0 0 0.872111 0 0 0 0 0.310069 0 0 0 0.5 0"/>
<feBlend mode="normal" in2="BackgroundImageFix" result="effect1_dropShadow"/>
<feBlend mode="normal" in="SourceGraphic" in2="effect1_dropShadow" result="shape"/>
</filter>
<filter id="filter2_d" x="275.72" y="248.386" width="82.827" height="82.827" filterUnits="userSpaceOnUse" color-interpolation-filters="sRGB">
<feFlood flood-opacity="0" result="BackgroundImageFix"/>
<feColorMatrix in="SourceAlpha" type="matrix" values="0 0 0 0 0 0 0 0 0 0 0 0 0 0 0 0 0 0 127 0"/>
<feOffset/>
<feGaussianBlur stdDeviation="7.5"/>
<feColorMatrix type="matrix" values="0 0 0 0 0.241667 0 0 0 0 0.24066 0 0 0 0 0.24066 0 0 0 1 0"/>
<feBlend mode="normal" in2="BackgroundImageFix" result="effect1_dropShadow"/>
<feBlend mode="normal" in="SourceGraphic" in2="effect1_dropShadow" result="shape"/>
</filter>
<filter id="filter3_d" x="210.932" y="310.184" width="76.8466" height="76.8466" filterUnits="userSpaceOnUse" color-interpolation-filters="sRGB">
<feFlood flood-opacity="0" result="BackgroundImageFix"/>
<feColorMatrix in="SourceAlpha" type="matrix" values="0 0 0 0 0 0 0 0 0 0 0 0 0 0 0 0 0 0 127 0"/>
<feOffset/>
<feGaussianBlur stdDeviation="7.5"/>
<feColorMatrix type="matrix" values="0 0 0 0 0.241667 0 0 0 0 0.24066 0 0 0 0 0.24066 0 0 0 1 0"/>
<feBlend mode="normal" in2="BackgroundImageFix" result="effect1_dropShadow"/>
<feBlend mode="normal" in="SourceGraphic" in2="effect1_dropShadow" result="shape"/>
</filter>
<filter id="filter4_d" x="165.082" y="160.674" width="76.8466" height="76.8466" filterUnits="userSpaceOnUse" color-interpolation-filters="sRGB">
<feFlood flood-opacity="0" result="BackgroundImageFix"/>
<feColorMatrix in="SourceAlpha" type="matrix" values="0 0 0 0 0 0 0 0 0 0 0 0 0 0 0 0 0 0 127 0"/>
<feOffset/>
<feGaussianBlur stdDeviation="7.5"/>
<feColorMatrix type="matrix" values="0 0 0 0 0.241667 0 0 0 0 0.24066 0 0 0 0 0.24066 0 0 0 1 0"/>
<feBlend mode="normal" in2="BackgroundImageFix" result="effect1_dropShadow"/>
<feBlend mode="normal" in="SourceGraphic" in2="effect1_dropShadow" result="shape"/>
</filter>
<filter id="filter5_d" x="32" y="0" width="69" height="69" filterUnits="userSpaceOnUse" color-interpolation-filters="sRGB">
<feFlood flood-opacity="0" result="BackgroundImageFix"/>
<feColorMatrix in="SourceAlpha" type="matrix" values="0 0 0 0 0 0 0 0 0 0 0 0 0 0 0 0 0 0 127 0"/>
<feOffset/>
<feGaussianBlur stdDeviation="7.5"/>
<feColorMatrix type="matrix" values="0 0 0 0 0.241667 0 0 0 0 0.24066 0 0 0 0 0.24066 0 0 0 1 0"/>
<feBlend mode="normal" in2="BackgroundImageFix" result="effect1_dropShadow"/>
<feBlend mode="normal" in="SourceGraphic" in2="effect1_dropShadow" result="shape"/>
</filter>
<filter id="filter6_d" x="0" y="57" width="56" height="56" filterUnits="userSpaceOnUse" color-interpolation-filters="sRGB">
<feFlood flood-opacity="0" result="BackgroundImageFix"/>
<feColorMatrix in="SourceAlpha" type="matrix" values="0 0 0 0 0 0 0 0 0 0 0 0 0 0 0 0 0 0 127 0"/>
<feOffset/>
<feGaussianBlur stdDeviation="7.5"/>
<feColorMatrix type="matrix" values="0 0 0 0 0.241667 0 0 0 0 0.24066 0 0 0 0 0.24066 0 0 0 1 0"/>
<feBlend mode="normal" in2="BackgroundImageFix" result="effect1_dropShadow"/>
<feBlend mode="normal" in="SourceGraphic" in2="effect1_dropShadow" result="shape"/>
</filter>
<filter id="filter7_d" x="432" y="17" width="69" height="69" filterUnits="userSpaceOnUse" color-interpolation-filters="sRGB">
<feFlood flood-opacity="0" result="BackgroundImageFix"/>
<feColorMatrix in="SourceAlpha" type="matrix" values="0 0 0 0 0 0 0 0 0 0 0 0 0 0 0 0 0 0 127 0"/>
<feOffset/>
<feGaussianBlur stdDeviation="7.5"/>
<feColorMatrix type="matrix" values="0 0 0 0 0.241667 0 0 0 0 0.24066 0 0 0 0 0.24066 0 0 0 1 0"/>
<feBlend mode="normal" in2="BackgroundImageFix" result="effect1_dropShadow"/>
<feBlend mode="normal" in="SourceGraphic" in2="effect1_dropShadow" result="shape"/>
</filter>
<filter id="filter8_d" x="482" y="72" width="56" height="56" filterUnits="userSpaceOnUse" color-interpolation-filters="sRGB">
<feFlood flood-opacity="0" result="BackgroundImageFix"/>
<feColorMatrix in="SourceAlpha" type="matrix" values="0 0 0 0 0 0 0 0 0 0 0 0 0 0 0 0 0 0 127 0"/>
<feOffset/>
<feGaussianBlur stdDeviation="7.5"/>
<feColorMatrix type="matrix" values="0 0 0 0 0.241667 0 0 0 0 0.24066 0 0 0 0 0.24066 0 0 0 1 0"/>
<feBlend mode="normal" in2="BackgroundImageFix" result="effect1_dropShadow"/>
<feBlend mode="normal" in="SourceGraphic" in2="effect1_dropShadow" result="shape"/>
</filter>
<radialGradient id="paint0_radial" cx="0" cy="0" r="1" gradientUnits="userSpaceOnUse" gradientTransform="translate(226.234 299.601) rotate(110.638) scale(34.7928)">
<stop stop-color="#FA4FAB"/>
<stop offset="1" stop-color="#330074"/>
</radialGradient>
<radialGradient id="paint1_radial" cx="0" cy="0" r="1" gradientUnits="userSpaceOnUse" gradientTransform="translate(336.071 187.136) rotate(110.638) scale(41.0057)">
<stop stop-color="#FADE4F"/>
<stop offset="1" stop-color="#A32801"/>
</radialGradient>
<radialGradient id="paint2_radial" cx="0" cy="0" r="1" gradientUnits="userSpaceOnUse" gradientTransform="translate(328.739 285.398) rotate(110.638) scale(32.9289)">
<stop stop-color="#ACACAC"/>
<stop offset="1" stop-color="#373737"/>
</radialGradient>
<radialGradient id="paint3_radial" cx="0" cy="0" r="1" gradientUnits="userSpaceOnUse" gradientTransform="translate(259.647 344.704) rotate(110.638) scale(29.2011)">
<stop stop-color="#ACACAC"/>
<stop offset="1" stop-color="#373737"/>
</radialGradient>
<radialGradient id="paint4_radial" cx="0" cy="0" r="1" gradientUnits="userSpaceOnUse" gradientTransform="translate(213.798 195.193) rotate(110.638) scale(29.2011)">
<stop stop-color="#ACACAC"/>
<stop offset="1" stop-color="#373737"/>
</radialGradient>
<radialGradient id="paint5_radial" cx="0" cy="0" r="1" gradientUnits="userSpaceOnUse" gradientTransform="translate(75.0682 31.25) rotate(110.638) scale(24.31)">
<stop stop-color="#ACACAC"/>
<stop offset="1" stop-color="#373737"/>
</radialGradient>
<radialGradient id="paint6_radial" cx="0" cy="0" r="1" gradientUnits="userSpaceOnUse" gradientTransform="translate(33.7121 82.8333) rotate(110.638) scale(16.2067)">
<stop stop-color="#ACACAC"/>
<stop offset="1" stop-color="#373737"/>
</radialGradient>
<radialGradient id="paint7_radial" cx="0" cy="0" r="1" gradientUnits="userSpaceOnUse" gradientTransform="translate(475.068 48.25) rotate(110.638) scale(24.31)">
<stop stop-color="#ACACAC"/>
<stop offset="1" stop-color="#373737"/>
</radialGradient>
<radialGradient id="paint8_radial" cx="0" cy="0" r="1" gradientUnits="userSpaceOnUse" gradientTransform="translate(515.712 97.8333) rotate(110.638) scale(16.2067)">
<stop stop-color="#ACACAC"/>
<stop offset="1" stop-color="#373737"/>
</radialGradient>
</defs>
</svg>
