<svg width="833" height="636" viewBox="0 0 833 636" fill="none" xmlns="http://www.w3.org/2000/svg">
<g filter="url(#filter0_d)">
<path fill-rule="evenodd" clip-rule="evenodd" d="M57.9274 317.691C51.8468 315.09 42.6272 316.197 37.335 320.163C34.5537 322.247 33.4106 324.706 33.8345 326.948L34.238 330.308L35.6998 330.132C36.4865 330.864 37.5088 331.516 38.7624 332.052C44.843 334.652 54.0625 333.546 59.3548 329.58C60.4458 328.762 61.2848 327.887 61.8759 326.99L63.3456 326.813L62.9242 323.303C62.9142 323.183 62.8998 323.063 62.881 322.944L62.873 322.878L62.8702 322.878C62.5175 320.822 60.8518 318.941 57.9274 317.691Z" fill="url(#paint0_radial)"/>
<ellipse rx="11.9744" ry="11.9744" transform="matrix(-0.919453 -0.3932 0.800248 -0.599669 48.778 328.479)" fill="url(#paint1_radial)"/>
<g style="mix-blend-mode:overlay">
<ellipse rx="10.1977" ry="10.1977" transform="matrix(-0.919453 -0.3932 0.800248 -0.599669 48.7128 328.446)" fill="url(#paint2_radial)"/>
</g>
</g>
<g filter="url(#filter1_d)">
<path fill-rule="evenodd" clip-rule="evenodd" d="M79.9072 363.626C76.4264 362.405 71.3368 363.365 68.5393 365.769C67.0694 367.032 66.5248 368.443 66.8439 369.675L67.1937 371.53L68.0007 371.378C68.4658 371.756 69.059 372.081 69.7766 372.332C73.2575 373.553 78.347 372.593 81.1445 370.189C81.7213 369.694 82.1555 369.175 82.4511 368.654L83.2624 368.501L82.8973 366.564C82.8872 366.497 82.8746 366.43 82.8595 366.364L82.8528 366.328L82.8512 366.329C82.5784 365.197 81.5813 364.213 79.9072 363.626Z" fill="url(#paint3_radial)"/>
<circle r="6.67887" transform="matrix(-0.943663 -0.330908 0.758407 -0.651782 75.2173 369.971)" fill="url(#paint4_radial)"/>
<g style="mix-blend-mode:overlay">
<circle r="5.68791" transform="matrix(-0.943663 -0.330908 0.758407 -0.651782 75.1799 369.955)" fill="url(#paint5_radial)"/>
</g>
</g>
<g filter="url(#filter2_d)">
<path fill-rule="evenodd" clip-rule="evenodd" d="M31.4687 383.345C28.7203 382.382 24.7016 383.139 22.4927 385.038C21.332 386.035 20.902 387.149 21.154 388.121L21.4302 389.587L22.0674 389.466C22.4347 389.765 22.9031 390.021 23.4697 390.22C26.2181 391.184 30.2368 390.426 32.4457 388.528C32.9011 388.136 33.244 387.727 33.4774 387.315L34.118 387.195L33.8297 385.666C33.8217 385.612 33.8117 385.56 33.7998 385.507L33.7945 385.479L33.7933 385.479C33.5779 384.586 32.7906 383.809 31.4687 383.345Z" fill="url(#paint6_radial)"/>
<circle r="5.27361" transform="matrix(-0.943663 -0.330908 0.758407 -0.651782 27.7657 388.355)" fill="url(#paint7_radial)"/>
<g style="mix-blend-mode:overlay">
<ellipse rx="4.49115" ry="4.49115" transform="matrix(-0.943663 -0.330908 0.758407 -0.651782 27.7361 388.343)" fill="url(#paint8_radial)"/>
</g>
</g>
<g filter="url(#filter3_d)">
<path fill-rule="evenodd" clip-rule="evenodd" d="M478.713 302.794C474.181 307.278 465.522 309.549 459.373 307.866C456.141 306.981 454.246 305.181 453.833 303.021L453.005 299.865L454.378 299.505C454.824 298.57 455.51 297.624 456.445 296.7C460.977 292.216 469.636 289.945 475.785 291.628C477.053 291.975 478.115 292.463 478.963 293.058L480.343 292.696L481.207 295.993C481.241 296.104 481.271 296.217 481.296 296.331L481.312 296.393L481.31 296.393C481.721 298.362 480.893 300.638 478.713 302.794Z" fill="url(#paint9_radial)"/>
<circle r="11.5437" transform="matrix(-0.710881 0.703312 0.964527 0.263985 466.69 296.359)" fill="url(#paint10_radial)"/>
<g style="mix-blend-mode:overlay">
<circle r="9.83092" transform="matrix(-0.710881 0.703312 0.964527 0.263985 466.644 296.411)" fill="url(#paint11_radial)"/>
</g>
</g>
<g filter="url(#filter4_d)">
<path fill-rule="evenodd" clip-rule="evenodd" d="M391.916 281.039C385.899 283.149 377.103 281.49 372.267 277.335C369.726 275.151 368.785 272.712 369.337 270.583L369.942 267.377L371.337 267.64C372.14 266.987 373.166 266.426 374.406 265.991C380.422 263.881 389.219 265.54 394.054 269.695C395.051 270.552 395.802 271.448 396.312 272.349L397.715 272.613L397.083 275.963C397.066 276.077 397.044 276.191 397.019 276.304L397.007 276.368L397.004 276.368C396.532 278.323 394.809 280.024 391.916 281.039Z" fill="url(#paint12_radial)"/>
<circle r="11.5437" transform="matrix(-0.943663 0.330908 0.758407 0.651782 383.81 270.073)" fill="url(#paint13_radial)"/>
<g style="mix-blend-mode:overlay">
<circle r="9.83092" transform="matrix(-0.943663 0.330908 0.758407 0.651782 383.745 270.1)" fill="url(#paint14_radial)"/>
</g>
</g>
<g filter="url(#filter5_d)">
<path fill-rule="evenodd" clip-rule="evenodd" d="M444.71 357.37C436.584 365.409 421.06 369.48 410.035 366.462C404.241 364.877 400.843 361.649 400.102 357.776L398.618 352.118L401.08 351.472C401.88 349.797 403.11 348.1 404.786 346.443C412.911 338.404 428.436 334.333 439.46 337.35C441.733 337.972 443.638 338.847 445.157 339.914L447.632 339.265L449.181 345.175C449.242 345.375 449.295 345.578 449.341 345.782L449.37 345.893L449.365 345.894C450.103 349.423 448.618 353.503 444.71 357.37Z" fill="url(#paint15_radial)"/>
<ellipse rx="20.6964" ry="20.6964" transform="matrix(-0.710881 0.703312 0.964527 0.263985 423.155 345.831)" fill="url(#paint16_radial)"/>
<g style="mix-blend-mode:overlay">
<ellipse rx="17.6257" ry="17.6257" transform="matrix(-0.710881 0.703312 0.964527 0.263985 423.071 345.925)" fill="url(#paint17_radial)"/>
</g>
</g>
<g filter="url(#filter6_d)">
<path fill-rule="evenodd" clip-rule="evenodd" d="M439.32 236.966C434.57 238.631 427.624 237.322 423.806 234.041C421.8 232.317 421.057 230.391 421.493 228.71L421.97 226.178L423.071 226.386C423.706 225.87 424.515 225.427 425.495 225.084C430.245 223.418 437.191 224.728 441.009 228.009C441.796 228.685 442.389 229.392 442.792 230.104L443.899 230.313L443.401 232.957C443.387 233.048 443.37 233.138 443.35 233.228L443.34 233.278L443.338 233.277C442.966 234.821 441.605 236.164 439.32 236.966Z" fill="url(#paint18_radial)"/>
<circle r="9.11485" transform="matrix(-0.943663 0.330908 0.758407 0.651782 432.92 228.307)" fill="url(#paint19_radial)"/>
<g style="mix-blend-mode:overlay">
<ellipse rx="7.76245" ry="7.76245" transform="matrix(-0.943663 0.330908 0.758407 0.651782 432.869 228.328)" fill="url(#paint20_radial)"/>
</g>
</g>
<g filter="url(#filter7_d)">
<path fill-rule="evenodd" clip-rule="evenodd" d="M165.932 97.9944C169.39 94.5727 175.998 92.8401 180.69 94.1244C183.156 94.7992 184.602 96.1726 184.918 97.8206L185.549 100.23L184.502 100.504C184.161 101.218 183.637 101.94 182.924 102.645C179.466 106.067 172.858 107.799 168.166 106.515C167.199 106.25 166.388 105.878 165.741 105.424L164.688 105.7L164.029 103.186C164.003 103.1 163.98 103.013 163.96 102.925L163.948 102.879L163.95 102.879C163.636 101.377 164.268 99.64 165.932 97.9944Z" fill="url(#paint21_radial)"/>
<circle r="8.80888" transform="matrix(0.710881 -0.703312 -0.964527 -0.263985 175.106 102.905)" fill="url(#paint22_radial)"/>
<g style="mix-blend-mode:overlay">
<circle r="7.50188" transform="matrix(0.710881 -0.703312 -0.964527 -0.263985 175.142 102.865)" fill="url(#paint23_radial)"/>
</g>
</g>
<g filter="url(#filter8_d)">
<path fill-rule="evenodd" clip-rule="evenodd" d="M236.931 89.8189C241.522 88.209 248.234 89.4745 251.924 92.6454C253.863 94.3116 254.581 96.1722 254.16 97.7966L253.699 100.244L252.634 100.043C252.021 100.542 251.239 100.97 250.292 101.302C245.701 102.912 238.989 101.646 235.299 98.4753C234.538 97.8216 233.965 97.1379 233.576 96.4504L232.506 96.2486L232.987 93.6947C233 93.6057 233.017 93.5173 233.037 93.4296L233.046 93.3831L233.048 93.3835C233.408 91.8915 234.723 90.5931 236.931 89.8189Z" fill="url(#paint24_radial)"/>
<circle r="8.80888" transform="matrix(0.943663 -0.330908 -0.758407 -0.651782 243.116 98.1871)" fill="url(#paint25_radial)"/>
<g style="mix-blend-mode:overlay">
<circle r="7.50188" transform="matrix(0.943663 -0.330908 -0.758407 -0.651782 243.166 98.1664)" fill="url(#paint26_radial)"/>
</g>
</g>
<g filter="url(#filter9_d)">
<path fill-rule="evenodd" clip-rule="evenodd" d="M196.644 31.5716C202.844 25.437 214.691 22.3306 223.104 24.6332C227.525 25.8431 230.118 28.306 230.684 31.261L231.816 35.5794L229.938 36.0719C229.327 37.3506 228.388 38.6452 227.11 39.9099C220.909 46.0445 209.063 49.1509 200.65 46.8483C198.915 46.3736 197.462 45.7061 196.303 44.8917L194.414 45.3869L193.232 40.8781C193.186 40.7248 193.145 40.5699 193.11 40.4135L193.088 40.3298L193.092 40.3288C192.529 37.6354 193.662 34.5219 196.644 31.5716Z" fill="url(#paint27_radial)"/>
<circle r="15.7933" transform="matrix(0.710881 -0.703312 -0.964527 -0.263985 213.092 40.3764)" fill="url(#paint28_radial)"/>
<g style="mix-blend-mode:overlay">
<ellipse rx="13.45" ry="13.45" transform="matrix(0.710881 -0.703312 -0.964527 -0.263985 213.157 40.3049)" fill="url(#paint29_radial)"/>
</g>
</g>
<g filter="url(#filter10_d)">
<path fill-rule="evenodd" clip-rule="evenodd" d="M200.757 123.451C204.382 122.18 209.682 123.179 212.595 125.683C214.127 126.999 214.694 128.468 214.361 129.751L213.997 131.682L213.156 131.524C212.672 131.917 212.054 132.256 211.307 132.518C207.682 133.789 202.382 132.79 199.468 130.286C198.868 129.77 198.415 129.23 198.108 128.687L197.263 128.528L197.643 126.509C197.654 126.44 197.666 126.372 197.682 126.304L197.689 126.265L197.691 126.265C197.975 125.087 199.013 124.062 200.757 123.451Z" fill="url(#paint30_radial)"/>
<circle r="6.95545" transform="matrix(0.943663 -0.330908 -0.758407 -0.651782 205.641 130.058)" fill="url(#paint31_radial)"/>
<g style="mix-blend-mode:overlay">
<ellipse rx="5.92345" ry="5.92345" transform="matrix(0.943663 -0.330908 -0.758407 -0.651782 205.68 130.042)" fill="url(#paint32_radial)"/>
</g>
</g>
<g filter="url(#filter11_d)">
<path fill-rule="evenodd" clip-rule="evenodd" d="M599.466 114.151C602.924 110.729 609.532 108.997 614.224 110.281C616.69 110.956 618.136 112.329 618.452 113.977L619.084 116.386L618.036 116.661C617.695 117.374 617.172 118.096 616.459 118.802C613 122.223 606.393 123.956 601.7 122.672C600.733 122.407 599.922 122.035 599.276 121.58L598.222 121.857L597.563 119.343C597.537 119.257 597.514 119.169 597.495 119.081L597.483 119.036L597.485 119.035C597.171 117.533 597.803 115.797 599.466 114.151Z" fill="url(#paint33_radial)"/>
<circle r="8.80888" transform="matrix(0.710881 -0.703312 -0.964527 -0.263985 608.64 119.062)" fill="url(#paint34_radial)"/>
<g style="mix-blend-mode:overlay">
<circle r="7.50188" transform="matrix(0.710881 -0.703312 -0.964527 -0.263985 608.676 119.022)" fill="url(#paint35_radial)"/>
</g>
</g>
<g filter="url(#filter12_d)">
<path fill-rule="evenodd" clip-rule="evenodd" d="M670.465 105.975C675.056 104.366 681.769 105.631 685.458 108.802C687.397 110.468 688.115 112.329 687.695 113.953L687.233 116.401L686.169 116.2C685.555 116.698 684.773 117.126 683.827 117.458C679.236 119.068 672.523 117.803 668.833 114.632C668.073 113.978 667.5 113.294 667.11 112.607L666.04 112.405L666.521 109.851C666.535 109.762 666.551 109.674 666.571 109.586L666.58 109.54L666.582 109.54C666.942 108.048 668.257 106.75 670.465 105.975Z" fill="url(#paint36_radial)"/>
<circle r="8.80888" transform="matrix(0.943663 -0.330908 -0.758407 -0.651782 676.651 114.344)" fill="url(#paint37_radial)"/>
<g style="mix-blend-mode:overlay">
<circle r="7.50188" transform="matrix(0.943663 -0.330908 -0.758407 -0.651782 676.7 114.323)" fill="url(#paint38_radial)"/>
</g>
</g>
<g filter="url(#filter13_d)">
<path fill-rule="evenodd" clip-rule="evenodd" d="M630.178 47.7281C636.379 41.5936 648.225 38.4871 656.638 40.7897C661.059 41.9996 663.652 44.4623 664.218 47.4171L665.35 51.7359L663.472 52.2285C662.861 53.5072 661.922 54.8018 660.644 56.0665C654.444 62.201 642.597 65.3075 634.184 63.0049C632.45 62.5302 630.997 61.8627 629.837 61.0483L627.949 61.5434L626.766 57.0354C626.72 56.8816 626.679 56.7262 626.644 56.5693L626.622 56.4863L626.626 56.4854C626.063 53.792 627.196 50.6785 630.178 47.7281Z" fill="url(#paint39_radial)"/>
<circle r="15.7933" transform="matrix(0.710881 -0.703312 -0.964527 -0.263985 646.627 56.533)" fill="url(#paint40_radial)"/>
<g style="mix-blend-mode:overlay">
<ellipse rx="13.45" ry="13.45" transform="matrix(0.710881 -0.703312 -0.964527 -0.263985 646.691 56.4614)" fill="url(#paint41_radial)"/>
</g>
</g>
<g filter="url(#filter14_d)">
<path fill-rule="evenodd" clip-rule="evenodd" d="M634.291 139.607C637.916 138.336 643.216 139.335 646.13 141.839C647.661 143.155 648.228 144.625 647.895 145.908L647.531 147.839L646.691 147.68C646.206 148.074 645.589 148.412 644.841 148.674C641.216 149.945 635.916 148.946 633.003 146.442C632.402 145.926 631.95 145.386 631.642 144.843L630.797 144.684L631.178 142.665C631.188 142.597 631.201 142.528 631.216 142.461L631.224 142.422L631.225 142.422C631.509 141.244 632.548 140.219 634.291 139.607Z" fill="url(#paint42_radial)"/>
<circle r="6.95545" transform="matrix(0.943663 -0.330908 -0.758407 -0.651782 639.175 146.215)" fill="url(#paint43_radial)"/>
<g style="mix-blend-mode:overlay">
<ellipse rx="5.92345" ry="5.92345" transform="matrix(0.943663 -0.330908 -0.758407 -0.651782 639.214 146.198)" fill="url(#paint44_radial)"/>
</g>
</g>
<g filter="url(#filter15_d)">
<path fill-rule="evenodd" clip-rule="evenodd" d="M432.927 540.691C426.847 538.09 417.627 539.197 412.335 543.163C409.554 545.247 408.411 547.706 408.835 549.948L409.238 553.308L410.7 553.132C411.487 553.864 412.509 554.516 413.762 555.052C419.843 557.652 429.063 556.545 434.355 552.58C435.446 551.762 436.285 550.887 436.876 549.99L438.346 549.813L437.924 546.303C437.914 546.183 437.9 546.063 437.881 545.944L437.873 545.878L437.87 545.878C437.518 543.822 435.852 541.941 432.927 540.691Z" fill="url(#paint45_radial)"/>
<ellipse rx="11.9744" ry="11.9744" transform="matrix(-0.919453 -0.3932 0.800248 -0.599669 423.778 551.479)" fill="url(#paint46_radial)"/>
<g style="mix-blend-mode:overlay">
<ellipse rx="10.1977" ry="10.1977" transform="matrix(-0.919453 -0.3932 0.800248 -0.599669 423.713 551.446)" fill="url(#paint47_radial)"/>
</g>
</g>
<g filter="url(#filter16_d)">
<path fill-rule="evenodd" clip-rule="evenodd" d="M454.907 586.626C451.426 585.405 446.337 586.365 443.539 588.769C442.069 590.032 441.525 591.443 441.844 592.675L442.194 594.53L443.001 594.378C443.466 594.756 444.059 595.081 444.777 595.332C448.257 596.553 453.347 595.593 456.145 593.189C456.721 592.694 457.156 592.175 457.451 591.654L458.262 591.501L457.897 589.564C457.887 589.497 457.875 589.43 457.859 589.364L457.853 589.328L457.851 589.329C457.578 588.197 456.581 587.213 454.907 586.626Z" fill="url(#paint48_radial)"/>
<circle r="6.67887" transform="matrix(-0.943663 -0.330908 0.758407 -0.651782 450.217 592.971)" fill="url(#paint49_radial)"/>
<g style="mix-blend-mode:overlay">
<circle r="5.68791" transform="matrix(-0.943663 -0.330908 0.758407 -0.651782 450.18 592.955)" fill="url(#paint50_radial)"/>
</g>
</g>
<g filter="url(#filter17_d)">
<path fill-rule="evenodd" clip-rule="evenodd" d="M406.469 606.345C403.72 605.382 399.702 606.139 397.493 608.038C396.332 609.035 395.902 610.149 396.154 611.121L396.43 612.587L397.067 612.466C397.435 612.765 397.903 613.021 398.47 613.22C401.218 614.184 405.237 613.426 407.446 611.528C407.901 611.136 408.244 610.727 408.477 610.315L409.118 610.195L408.83 608.666C408.822 608.612 408.812 608.56 408.8 608.507L408.795 608.479L408.793 608.479C408.578 607.586 407.791 606.809 406.469 606.345Z" fill="url(#paint51_radial)"/>
<circle r="5.27361" transform="matrix(-0.943663 -0.330908 0.758407 -0.651782 402.766 611.355)" fill="url(#paint52_radial)"/>
<g style="mix-blend-mode:overlay">
<ellipse rx="4.49115" ry="4.49115" transform="matrix(-0.943663 -0.330908 0.758407 -0.651782 402.736 611.343)" fill="url(#paint53_radial)"/>
</g>
</g>
<g filter="url(#filter18_d)">
<path fill-rule="evenodd" clip-rule="evenodd" d="M786.927 322.691C780.847 320.09 771.627 321.197 766.335 325.163C763.554 327.247 762.411 329.706 762.835 331.948L763.238 335.308L764.7 335.132C765.487 335.864 766.509 336.516 767.762 337.052C773.843 339.652 783.063 338.546 788.355 334.58C789.446 333.762 790.285 332.887 790.876 331.99L792.346 331.813L791.924 328.303C791.914 328.183 791.9 328.063 791.881 327.944L791.873 327.878L791.87 327.878C791.518 325.822 789.852 323.941 786.927 322.691Z" fill="url(#paint54_radial)"/>
<ellipse rx="11.9744" ry="11.9744" transform="matrix(-0.919453 -0.3932 0.800248 -0.599669 777.778 333.479)" fill="url(#paint55_radial)"/>
<g style="mix-blend-mode:overlay">
<ellipse rx="10.1977" ry="10.1977" transform="matrix(-0.919453 -0.3932 0.800248 -0.599669 777.713 333.446)" fill="url(#paint56_radial)"/>
</g>
</g>
<g filter="url(#filter19_d)">
<path fill-rule="evenodd" clip-rule="evenodd" d="M808.907 368.626C805.426 367.405 800.337 368.365 797.539 370.769C796.069 372.032 795.525 373.443 795.844 374.675L796.194 376.53L797.001 376.378C797.466 376.756 798.059 377.081 798.777 377.332C802.258 378.553 807.347 377.593 810.145 375.189C810.721 374.694 811.156 374.175 811.451 373.654L812.262 373.501L811.897 371.564C811.887 371.497 811.875 371.43 811.86 371.364L811.853 371.328L811.851 371.329C811.578 370.197 810.581 369.213 808.907 368.626Z" fill="url(#paint57_radial)"/>
<circle r="6.67887" transform="matrix(-0.943663 -0.330908 0.758407 -0.651782 804.217 374.971)" fill="url(#paint58_radial)"/>
<g style="mix-blend-mode:overlay">
<circle r="5.68791" transform="matrix(-0.943663 -0.330908 0.758407 -0.651782 804.18 374.955)" fill="url(#paint59_radial)"/>
</g>
</g>
<g filter="url(#filter20_d)">
<path fill-rule="evenodd" clip-rule="evenodd" d="M760.469 388.345C757.72 387.382 753.702 388.139 751.493 390.038C750.332 391.035 749.902 392.149 750.154 393.121L750.43 394.587L751.067 394.466C751.435 394.765 751.903 395.021 752.47 395.22C755.218 396.184 759.237 395.426 761.446 393.528C761.901 393.136 762.244 392.727 762.477 392.315L763.118 392.195L762.83 390.666C762.822 390.612 762.812 390.56 762.8 390.507L762.795 390.479L762.793 390.479C762.578 389.586 761.791 388.809 760.469 388.345Z" fill="url(#paint60_radial)"/>
<circle r="5.27361" transform="matrix(-0.943663 -0.330908 0.758407 -0.651782 756.766 393.355)" fill="url(#paint61_radial)"/>
<g style="mix-blend-mode:overlay">
<ellipse rx="4.49115" ry="4.49115" transform="matrix(-0.943663 -0.330908 0.758407 -0.651782 756.736 393.343)" fill="url(#paint62_radial)"/>
</g>
</g>
<defs>
<filter id="filter0_d" x="12.7745" y="294.716" width="71.1407" height="62.3504" filterUnits="userSpaceOnUse" color-interpolation-filters="sRGB">
<feFlood flood-opacity="0" result="BackgroundImageFix"/>
<feColorMatrix in="SourceAlpha" type="matrix" values="0 0 0 0 0 0 0 0 0 0 0 0 0 0 0 0 0 0 127 0"/>
<feOffset/>
<feGaussianBlur stdDeviation="10"/>
<feColorMatrix type="matrix" values="0 0 0 0 0.92 0 0 0 0 1 0 0 0 0 0 0 0 0 0.5 0"/>
<feBlend mode="normal" in2="BackgroundImageFix" result="effect1_dropShadow"/>
<feBlend mode="normal" in="SourceGraphic" in2="effect1_dropShadow" result="shape"/>
</filter>
<filter id="filter1_d" x="45.9287" y="341.823" width="57.8265" height="53.031" filterUnits="userSpaceOnUse" color-interpolation-filters="sRGB">
<feFlood flood-opacity="0" result="BackgroundImageFix"/>
<feColorMatrix in="SourceAlpha" type="matrix" values="0 0 0 0 0 0 0 0 0 0 0 0 0 0 0 0 0 0 127 0"/>
<feOffset/>
<feGaussianBlur stdDeviation="10"/>
<feColorMatrix type="matrix" values="0 0 0 0 0.92 0 0 0 0 1 0 0 0 0 0 0 0 0 0.5 0"/>
<feBlend mode="normal" in2="BackgroundImageFix" result="effect1_dropShadow"/>
<feBlend mode="normal" in="SourceGraphic" in2="effect1_dropShadow" result="shape"/>
</filter>
<filter id="filter2_d" x="0.431366" y="361.922" width="54.0757" height="50.2893" filterUnits="userSpaceOnUse" color-interpolation-filters="sRGB">
<feFlood flood-opacity="0" result="BackgroundImageFix"/>
<feColorMatrix in="SourceAlpha" type="matrix" values="0 0 0 0 0 0 0 0 0 0 0 0 0 0 0 0 0 0 127 0"/>
<feOffset/>
<feGaussianBlur stdDeviation="10"/>
<feColorMatrix type="matrix" values="0 0 0 0 0.92 0 0 0 0 1 0 0 0 0 0 0 0 0 0.5 0"/>
<feBlend mode="normal" in2="BackgroundImageFix" result="effect1_dropShadow"/>
<feBlend mode="normal" in="SourceGraphic" in2="effect1_dropShadow" result="shape"/>
</filter>
<filter id="filter3_d" x="431.833" y="267.684" width="71.4923" height="63.5443" filterUnits="userSpaceOnUse" color-interpolation-filters="sRGB">
<feFlood flood-opacity="0" result="BackgroundImageFix"/>
<feColorMatrix in="SourceAlpha" type="matrix" values="0 0 0 0 0 0 0 0 0 0 0 0 0 0 0 0 0 0 127 0"/>
<feOffset/>
<feGaussianBlur stdDeviation="10"/>
<feColorMatrix type="matrix" values="0 0 0 0 0.92 0 0 0 0 1 0 0 0 0 0 0 0 0 0.5 0"/>
<feBlend mode="normal" in2="BackgroundImageFix" result="effect1_dropShadow"/>
<feBlend mode="normal" in="SourceGraphic" in2="effect1_dropShadow" result="shape"/>
</filter>
<filter id="filter4_d" x="347.755" y="241.633" width="70.8111" height="62.5227" filterUnits="userSpaceOnUse" color-interpolation-filters="sRGB">
<feFlood flood-opacity="0" result="BackgroundImageFix"/>
<feColorMatrix in="SourceAlpha" type="matrix" values="0 0 0 0 0 0 0 0 0 0 0 0 0 0 0 0 0 0 127 0"/>
<feOffset/>
<feGaussianBlur stdDeviation="10"/>
<feColorMatrix type="matrix" values="0 0 0 0 0.92 0 0 0 0 1 0 0 0 0 0 0 0 0 0.5 0"/>
<feBlend mode="normal" in2="BackgroundImageFix" result="effect1_dropShadow"/>
<feBlend mode="normal" in="SourceGraphic" in2="effect1_dropShadow" result="shape"/>
</filter>
<filter id="filter5_d" x="376.517" y="310.279" width="96.4618" height="82.2122" filterUnits="userSpaceOnUse" color-interpolation-filters="sRGB">
<feFlood flood-opacity="0" result="BackgroundImageFix"/>
<feColorMatrix in="SourceAlpha" type="matrix" values="0 0 0 0 0 0 0 0 0 0 0 0 0 0 0 0 0 0 127 0"/>
<feOffset/>
<feGaussianBlur stdDeviation="10"/>
<feColorMatrix type="matrix" values="0 0 0 0 0.92 0 0 0 0 1 0 0 0 0 0 0 0 0 0.5 0"/>
<feBlend mode="normal" in2="BackgroundImageFix" result="effect1_dropShadow"/>
<feBlend mode="normal" in="SourceGraphic" in2="effect1_dropShadow" result="shape"/>
</filter>
<filter id="filter6_d" x="400.243" y="201.643" width="64.3283" height="57.7838" filterUnits="userSpaceOnUse" color-interpolation-filters="sRGB">
<feFlood flood-opacity="0" result="BackgroundImageFix"/>
<feColorMatrix in="SourceAlpha" type="matrix" values="0 0 0 0 0 0 0 0 0 0 0 0 0 0 0 0 0 0 127 0"/>
<feOffset/>
<feGaussianBlur stdDeviation="10"/>
<feColorMatrix type="matrix" values="0 0 0 0 0.92 0 0 0 0 1 0 0 0 0 0 0 0 0 0.5 0"/>
<feBlend mode="normal" in2="BackgroundImageFix" result="effect1_dropShadow"/>
<feBlend mode="normal" in="SourceGraphic" in2="effect1_dropShadow" result="shape"/>
</filter>
<filter id="filter7_d" x="142.412" y="71.5582" width="64.0314" height="57.9665" filterUnits="userSpaceOnUse" color-interpolation-filters="sRGB">
<feFlood flood-opacity="0" result="BackgroundImageFix"/>
<feColorMatrix in="SourceAlpha" type="matrix" values="0 0 0 0 0 0 0 0 0 0 0 0 0 0 0 0 0 0 127 0"/>
<feOffset/>
<feGaussianBlur stdDeviation="10"/>
<feColorMatrix type="matrix" values="0 0 0 0 0.92 0 0 0 0 1 0 0 0 0 0 0 0 0 0.5 0"/>
<feBlend mode="normal" in2="BackgroundImageFix" result="effect1_dropShadow"/>
<feBlend mode="normal" in="SourceGraphic" in2="effect1_dropShadow" result="shape"/>
</filter>
<filter id="filter8_d" x="211.856" y="67.4407" width="63.5116" height="57.1869" filterUnits="userSpaceOnUse" color-interpolation-filters="sRGB">
<feFlood flood-opacity="0" result="BackgroundImageFix"/>
<feColorMatrix in="SourceAlpha" type="matrix" values="0 0 0 0 0 0 0 0 0 0 0 0 0 0 0 0 0 0 127 0"/>
<feOffset/>
<feGaussianBlur stdDeviation="10"/>
<feColorMatrix type="matrix" values="0 0 0 0 0.92 0 0 0 0 1 0 0 0 0 0 0 0 0 0.5 0"/>
<feBlend mode="normal" in2="BackgroundImageFix" result="effect1_dropShadow"/>
<feBlend mode="normal" in="SourceGraphic" in2="effect1_dropShadow" result="shape"/>
</filter>
<filter id="filter9_d" x="170.334" y="0.0322418" width="83.0855" height="72.2117" filterUnits="userSpaceOnUse" color-interpolation-filters="sRGB">
<feFlood flood-opacity="0" result="BackgroundImageFix"/>
<feColorMatrix in="SourceAlpha" type="matrix" values="0 0 0 0 0 0 0 0 0 0 0 0 0 0 0 0 0 0 127 0"/>
<feOffset/>
<feGaussianBlur stdDeviation="10"/>
<feColorMatrix type="matrix" values="0 0 0 0 0.92 0 0 0 0 1 0 0 0 0 0 0 0 0 0.5 0"/>
<feBlend mode="normal" in2="BackgroundImageFix" result="effect1_dropShadow"/>
<feBlend mode="normal" in="SourceGraphic" in2="effect1_dropShadow" result="shape"/>
</filter>
<filter id="filter10_d" x="176.75" y="101.573" width="58.5647" height="53.5707" filterUnits="userSpaceOnUse" color-interpolation-filters="sRGB">
<feFlood flood-opacity="0" result="BackgroundImageFix"/>
<feColorMatrix in="SourceAlpha" type="matrix" values="0 0 0 0 0 0 0 0 0 0 0 0 0 0 0 0 0 0 127 0"/>
<feOffset/>
<feGaussianBlur stdDeviation="10"/>
<feColorMatrix type="matrix" values="0 0 0 0 0.92 0 0 0 0 1 0 0 0 0 0 0 0 0 0.5 0"/>
<feBlend mode="normal" in2="BackgroundImageFix" result="effect1_dropShadow"/>
<feBlend mode="normal" in="SourceGraphic" in2="effect1_dropShadow" result="shape"/>
</filter>
<filter id="filter11_d" x="575.947" y="87.7147" width="64.0314" height="57.9665" filterUnits="userSpaceOnUse" color-interpolation-filters="sRGB">
<feFlood flood-opacity="0" result="BackgroundImageFix"/>
<feColorMatrix in="SourceAlpha" type="matrix" values="0 0 0 0 0 0 0 0 0 0 0 0 0 0 0 0 0 0 127 0"/>
<feOffset/>
<feGaussianBlur stdDeviation="10"/>
<feColorMatrix type="matrix" values="0 0 0 0 0.92 0 0 0 0 1 0 0 0 0 0 0 0 0 0.5 0"/>
<feBlend mode="normal" in2="BackgroundImageFix" result="effect1_dropShadow"/>
<feBlend mode="normal" in="SourceGraphic" in2="effect1_dropShadow" result="shape"/>
</filter>
<filter id="filter12_d" x="645.39" y="83.5972" width="63.5116" height="57.1869" filterUnits="userSpaceOnUse" color-interpolation-filters="sRGB">
<feFlood flood-opacity="0" result="BackgroundImageFix"/>
<feColorMatrix in="SourceAlpha" type="matrix" values="0 0 0 0 0 0 0 0 0 0 0 0 0 0 0 0 0 0 127 0"/>
<feOffset/>
<feGaussianBlur stdDeviation="10"/>
<feColorMatrix type="matrix" values="0 0 0 0 0.92 0 0 0 0 1 0 0 0 0 0 0 0 0 0.5 0"/>
<feBlend mode="normal" in2="BackgroundImageFix" result="effect1_dropShadow"/>
<feBlend mode="normal" in="SourceGraphic" in2="effect1_dropShadow" result="shape"/>
</filter>
<filter id="filter13_d" x="603.868" y="16.1888" width="83.0855" height="72.2117" filterUnits="userSpaceOnUse" color-interpolation-filters="sRGB">
<feFlood flood-opacity="0" result="BackgroundImageFix"/>
<feColorMatrix in="SourceAlpha" type="matrix" values="0 0 0 0 0 0 0 0 0 0 0 0 0 0 0 0 0 0 127 0"/>
<feOffset/>
<feGaussianBlur stdDeviation="10"/>
<feColorMatrix type="matrix" values="0 0 0 0 0.92 0 0 0 0 1 0 0 0 0 0 0 0 0 0.5 0"/>
<feBlend mode="normal" in2="BackgroundImageFix" result="effect1_dropShadow"/>
<feBlend mode="normal" in="SourceGraphic" in2="effect1_dropShadow" result="shape"/>
</filter>
<filter id="filter14_d" x="610.284" y="117.729" width="58.5647" height="53.5707" filterUnits="userSpaceOnUse" color-interpolation-filters="sRGB">
<feFlood flood-opacity="0" result="BackgroundImageFix"/>
<feColorMatrix in="SourceAlpha" type="matrix" values="0 0 0 0 0 0 0 0 0 0 0 0 0 0 0 0 0 0 127 0"/>
<feOffset/>
<feGaussianBlur stdDeviation="10"/>
<feColorMatrix type="matrix" values="0 0 0 0 0.92 0 0 0 0 1 0 0 0 0 0 0 0 0 0.5 0"/>
<feBlend mode="normal" in2="BackgroundImageFix" result="effect1_dropShadow"/>
<feBlend mode="normal" in="SourceGraphic" in2="effect1_dropShadow" result="shape"/>
</filter>
<filter id="filter15_d" x="387.775" y="517.716" width="71.1407" height="62.3504" filterUnits="userSpaceOnUse" color-interpolation-filters="sRGB">
<feFlood flood-opacity="0" result="BackgroundImageFix"/>
<feColorMatrix in="SourceAlpha" type="matrix" values="0 0 0 0 0 0 0 0 0 0 0 0 0 0 0 0 0 0 127 0"/>
<feOffset/>
<feGaussianBlur stdDeviation="10"/>
<feColorMatrix type="matrix" values="0 0 0 0 0.92 0 0 0 0 1 0 0 0 0 0 0 0 0 0.5 0"/>
<feBlend mode="normal" in2="BackgroundImageFix" result="effect1_dropShadow"/>
<feBlend mode="normal" in="SourceGraphic" in2="effect1_dropShadow" result="shape"/>
</filter>
<filter id="filter16_d" x="420.929" y="564.823" width="57.8265" height="53.031" filterUnits="userSpaceOnUse" color-interpolation-filters="sRGB">
<feFlood flood-opacity="0" result="BackgroundImageFix"/>
<feColorMatrix in="SourceAlpha" type="matrix" values="0 0 0 0 0 0 0 0 0 0 0 0 0 0 0 0 0 0 127 0"/>
<feOffset/>
<feGaussianBlur stdDeviation="10"/>
<feColorMatrix type="matrix" values="0 0 0 0 0.92 0 0 0 0 1 0 0 0 0 0 0 0 0 0.5 0"/>
<feBlend mode="normal" in2="BackgroundImageFix" result="effect1_dropShadow"/>
<feBlend mode="normal" in="SourceGraphic" in2="effect1_dropShadow" result="shape"/>
</filter>
<filter id="filter17_d" x="375.431" y="584.922" width="54.0757" height="50.2893" filterUnits="userSpaceOnUse" color-interpolation-filters="sRGB">
<feFlood flood-opacity="0" result="BackgroundImageFix"/>
<feColorMatrix in="SourceAlpha" type="matrix" values="0 0 0 0 0 0 0 0 0 0 0 0 0 0 0 0 0 0 127 0"/>
<feOffset/>
<feGaussianBlur stdDeviation="10"/>
<feColorMatrix type="matrix" values="0 0 0 0 0.92 0 0 0 0 1 0 0 0 0 0 0 0 0 0.5 0"/>
<feBlend mode="normal" in2="BackgroundImageFix" result="effect1_dropShadow"/>
<feBlend mode="normal" in="SourceGraphic" in2="effect1_dropShadow" result="shape"/>
</filter>
<filter id="filter18_d" x="741.775" y="299.716" width="71.1407" height="62.3504" filterUnits="userSpaceOnUse" color-interpolation-filters="sRGB">
<feFlood flood-opacity="0" result="BackgroundImageFix"/>
<feColorMatrix in="SourceAlpha" type="matrix" values="0 0 0 0 0 0 0 0 0 0 0 0 0 0 0 0 0 0 127 0"/>
<feOffset/>
<feGaussianBlur stdDeviation="10"/>
<feColorMatrix type="matrix" values="0 0 0 0 0.92 0 0 0 0 1 0 0 0 0 0 0 0 0 0.5 0"/>
<feBlend mode="normal" in2="BackgroundImageFix" result="effect1_dropShadow"/>
<feBlend mode="normal" in="SourceGraphic" in2="effect1_dropShadow" result="shape"/>
</filter>
<filter id="filter19_d" x="774.929" y="346.823" width="57.8265" height="53.031" filterUnits="userSpaceOnUse" color-interpolation-filters="sRGB">
<feFlood flood-opacity="0" result="BackgroundImageFix"/>
<feColorMatrix in="SourceAlpha" type="matrix" values="0 0 0 0 0 0 0 0 0 0 0 0 0 0 0 0 0 0 127 0"/>
<feOffset/>
<feGaussianBlur stdDeviation="10"/>
<feColorMatrix type="matrix" values="0 0 0 0 0.92 0 0 0 0 1 0 0 0 0 0 0 0 0 0.5 0"/>
<feBlend mode="normal" in2="BackgroundImageFix" result="effect1_dropShadow"/>
<feBlend mode="normal" in="SourceGraphic" in2="effect1_dropShadow" result="shape"/>
</filter>
<filter id="filter20_d" x="729.431" y="366.922" width="54.0757" height="50.2893" filterUnits="userSpaceOnUse" color-interpolation-filters="sRGB">
<feFlood flood-opacity="0" result="BackgroundImageFix"/>
<feColorMatrix in="SourceAlpha" type="matrix" values="0 0 0 0 0 0 0 0 0 0 0 0 0 0 0 0 0 0 127 0"/>
<feOffset/>
<feGaussianBlur stdDeviation="10"/>
<feColorMatrix type="matrix" values="0 0 0 0 0.92 0 0 0 0 1 0 0 0 0 0 0 0 0 0.5 0"/>
<feBlend mode="normal" in2="BackgroundImageFix" result="effect1_dropShadow"/>
<feBlend mode="normal" in="SourceGraphic" in2="effect1_dropShadow" result="shape"/>
</filter>
<radialGradient id="paint0_radial" cx="0" cy="0" r="1" gradientUnits="userSpaceOnUse" gradientTransform="translate(48.3449 324.871) rotate(-36.8462) scale(11.9744 10.3701)">
<stop stop-color="#F2FF5C"/>
<stop offset="1" stop-color="#FFC700"/>
</radialGradient>
<radialGradient id="paint1_radial" cx="0" cy="0" r="1" gradientUnits="userSpaceOnUse" gradientTransform="translate(11.9744 11.9744) rotate(90) scale(11.9744)">
<stop stop-color="#E9FB18"/>
<stop offset="1" stop-color="#DDBC11"/>
</radialGradient>
<radialGradient id="paint2_radial" cx="0" cy="0" r="1" gradientUnits="userSpaceOnUse" gradientTransform="translate(10.1977 10.1977) rotate(90) scale(10.1977)">
<stop stop-color="#E9FB18"/>
<stop offset="1" stop-color="#DDBC11"/>
</radialGradient>
<radialGradient id="paint3_radial" cx="0" cy="0" r="1" gradientUnits="userSpaceOnUse" gradientTransform="translate(74.8419 367.979) rotate(-40.6761) scale(6.67887 5.78407)">
<stop stop-color="#F2FF5C"/>
<stop offset="1" stop-color="#FFC700"/>
</radialGradient>
<radialGradient id="paint4_radial" cx="0" cy="0" r="1" gradientUnits="userSpaceOnUse" gradientTransform="translate(6.67887 6.67887) rotate(90) scale(6.67887)">
<stop stop-color="#E9FB18"/>
<stop offset="1" stop-color="#DDBC11"/>
</radialGradient>
<radialGradient id="paint5_radial" cx="0" cy="0" r="1" gradientUnits="userSpaceOnUse" gradientTransform="translate(5.68791 5.68791) rotate(90) scale(5.68791)">
<stop stop-color="#E9FB18"/>
<stop offset="1" stop-color="#DDBC11"/>
</radialGradient>
<radialGradient id="paint6_radial" cx="0" cy="0" r="1" gradientUnits="userSpaceOnUse" gradientTransform="translate(27.4692 386.783) rotate(-40.6761) scale(5.27361 4.56708)">
<stop stop-color="#F2FF5C"/>
<stop offset="1" stop-color="#FFC700"/>
</radialGradient>
<radialGradient id="paint7_radial" cx="0" cy="0" r="1" gradientUnits="userSpaceOnUse" gradientTransform="translate(5.27361 5.27361) rotate(90) scale(5.27361)">
<stop stop-color="#E9FB18"/>
<stop offset="1" stop-color="#DDBC11"/>
</radialGradient>
<radialGradient id="paint8_radial" cx="0" cy="0" r="1" gradientUnits="userSpaceOnUse" gradientTransform="translate(4.49115 4.49115) rotate(90) scale(4.49115)">
<stop stop-color="#E9FB18"/>
<stop offset="1" stop-color="#DDBC11"/>
</radialGradient>
<radialGradient id="paint9_radial" cx="0" cy="0" r="1" gradientUnits="userSpaceOnUse" gradientTransform="translate(467.579 299.747) rotate(15.3066) scale(11.5437 9.99713)">
<stop stop-color="#F2FF5C"/>
<stop offset="1" stop-color="#FFC700"/>
</radialGradient>
<radialGradient id="paint10_radial" cx="0" cy="0" r="1" gradientUnits="userSpaceOnUse" gradientTransform="translate(11.5437 11.5437) rotate(90) scale(11.5437)">
<stop stop-color="#E9FB18"/>
<stop offset="1" stop-color="#DDBC11"/>
</radialGradient>
<radialGradient id="paint11_radial" cx="0" cy="0" r="1" gradientUnits="userSpaceOnUse" gradientTransform="translate(9.83092 9.83092) rotate(90) scale(9.83092)">
<stop stop-color="#E9FB18"/>
<stop offset="1" stop-color="#DDBC11"/>
</radialGradient>
<radialGradient id="paint12_radial" cx="0" cy="0" r="1" gradientUnits="userSpaceOnUse" gradientTransform="translate(383.161 273.515) rotate(40.6761) scale(11.5437 9.99713)">
<stop stop-color="#F2FF5C"/>
<stop offset="1" stop-color="#FFC700"/>
</radialGradient>
<radialGradient id="paint13_radial" cx="0" cy="0" r="1" gradientUnits="userSpaceOnUse" gradientTransform="translate(11.5437 11.5437) rotate(90) scale(11.5437)">
<stop stop-color="#E9FB18"/>
<stop offset="1" stop-color="#DDBC11"/>
</radialGradient>
<radialGradient id="paint14_radial" cx="0" cy="0" r="1" gradientUnits="userSpaceOnUse" gradientTransform="translate(9.83092 9.83092) rotate(90) scale(9.83092)">
<stop stop-color="#E9FB18"/>
<stop offset="1" stop-color="#DDBC11"/>
</radialGradient>
<radialGradient id="paint15_radial" cx="0" cy="0" r="1" gradientUnits="userSpaceOnUse" gradientTransform="translate(424.748 351.906) rotate(15.3066) scale(20.6964 17.9236)">
<stop stop-color="#F2FF5C"/>
<stop offset="1" stop-color="#FFC700"/>
</radialGradient>
<radialGradient id="paint16_radial" cx="0" cy="0" r="1" gradientUnits="userSpaceOnUse" gradientTransform="translate(20.6964 20.6964) rotate(90) scale(20.6964)">
<stop stop-color="#E9FB18"/>
<stop offset="1" stop-color="#DDBC11"/>
</radialGradient>
<radialGradient id="paint17_radial" cx="0" cy="0" r="1" gradientUnits="userSpaceOnUse" gradientTransform="translate(17.6257 17.6257) rotate(90) scale(17.6257)">
<stop stop-color="#E9FB18"/>
<stop offset="1" stop-color="#DDBC11"/>
</radialGradient>
<radialGradient id="paint18_radial" cx="0" cy="0" r="1" gradientUnits="userSpaceOnUse" gradientTransform="translate(432.408 231.025) rotate(40.6761) scale(9.11485 7.89369)">
<stop stop-color="#F2FF5C"/>
<stop offset="1" stop-color="#FFC700"/>
</radialGradient>
<radialGradient id="paint19_radial" cx="0" cy="0" r="1" gradientUnits="userSpaceOnUse" gradientTransform="translate(9.11485 9.11485) rotate(90) scale(9.11485)">
<stop stop-color="#E9FB18"/>
<stop offset="1" stop-color="#DDBC11"/>
</radialGradient>
<radialGradient id="paint20_radial" cx="0" cy="0" r="1" gradientUnits="userSpaceOnUse" gradientTransform="translate(7.76245 7.76245) rotate(90) scale(7.76245)">
<stop stop-color="#E9FB18"/>
<stop offset="1" stop-color="#DDBC11"/>
</radialGradient>
<radialGradient id="paint21_radial" cx="0" cy="0" r="1" gradientUnits="userSpaceOnUse" gradientTransform="translate(174.428 100.32) rotate(-164.693) scale(8.80888 7.62871)">
<stop stop-color="#F2FF5C"/>
<stop offset="1" stop-color="#FFC700"/>
</radialGradient>
<radialGradient id="paint22_radial" cx="0" cy="0" r="1" gradientUnits="userSpaceOnUse" gradientTransform="translate(8.80888 8.80888) rotate(90) scale(8.80888)">
<stop stop-color="#E9FB18"/>
<stop offset="1" stop-color="#DDBC11"/>
</radialGradient>
<radialGradient id="paint23_radial" cx="0" cy="0" r="1" gradientUnits="userSpaceOnUse" gradientTransform="translate(7.50188 7.50188) rotate(90) scale(7.50188)">
<stop stop-color="#E9FB18"/>
<stop offset="1" stop-color="#DDBC11"/>
</radialGradient>
<radialGradient id="paint24_radial" cx="0" cy="0" r="1" gradientUnits="userSpaceOnUse" gradientTransform="translate(243.611 95.5604) rotate(-139.324) scale(8.80888 7.62871)">
<stop stop-color="#F2FF5C"/>
<stop offset="1" stop-color="#FFC700"/>
</radialGradient>
<radialGradient id="paint25_radial" cx="0" cy="0" r="1" gradientUnits="userSpaceOnUse" gradientTransform="translate(8.80888 8.80888) rotate(90) scale(8.80888)">
<stop stop-color="#E9FB18"/>
<stop offset="1" stop-color="#DDBC11"/>
</radialGradient>
<radialGradient id="paint26_radial" cx="0" cy="0" r="1" gradientUnits="userSpaceOnUse" gradientTransform="translate(7.50188 7.50188) rotate(90) scale(7.50188)">
<stop stop-color="#E9FB18"/>
<stop offset="1" stop-color="#DDBC11"/>
</radialGradient>
<radialGradient id="paint27_radial" cx="0" cy="0" r="1" gradientUnits="userSpaceOnUse" gradientTransform="translate(211.877 35.7407) rotate(-164.693) scale(15.7933 13.6774)">
<stop stop-color="#F2FF5C"/>
<stop offset="1" stop-color="#FFC700"/>
</radialGradient>
<radialGradient id="paint28_radial" cx="0" cy="0" r="1" gradientUnits="userSpaceOnUse" gradientTransform="translate(15.7933 15.7933) rotate(90) scale(15.7933)">
<stop stop-color="#E9FB18"/>
<stop offset="1" stop-color="#DDBC11"/>
</radialGradient>
<radialGradient id="paint29_radial" cx="0" cy="0" r="1" gradientUnits="userSpaceOnUse" gradientTransform="translate(13.45 13.45) rotate(90) scale(13.45)">
<stop stop-color="#E9FB18"/>
<stop offset="1" stop-color="#DDBC11"/>
</radialGradient>
<radialGradient id="paint30_radial" cx="0" cy="0" r="1" gradientUnits="userSpaceOnUse" gradientTransform="translate(206.032 127.984) rotate(-139.324) scale(6.95545 6.0236)">
<stop stop-color="#F2FF5C"/>
<stop offset="1" stop-color="#FFC700"/>
</radialGradient>
<radialGradient id="paint31_radial" cx="0" cy="0" r="1" gradientUnits="userSpaceOnUse" gradientTransform="translate(6.95545 6.95545) rotate(90) scale(6.95545)">
<stop stop-color="#E9FB18"/>
<stop offset="1" stop-color="#DDBC11"/>
</radialGradient>
<radialGradient id="paint32_radial" cx="0" cy="0" r="1" gradientUnits="userSpaceOnUse" gradientTransform="translate(5.92345 5.92345) rotate(90) scale(5.92345)">
<stop stop-color="#E9FB18"/>
<stop offset="1" stop-color="#DDBC11"/>
</radialGradient>
<radialGradient id="paint33_radial" cx="0" cy="0" r="1" gradientUnits="userSpaceOnUse" gradientTransform="translate(607.962 116.476) rotate(-164.693) scale(8.80888 7.62871)">
<stop stop-color="#F2FF5C"/>
<stop offset="1" stop-color="#FFC700"/>
</radialGradient>
<radialGradient id="paint34_radial" cx="0" cy="0" r="1" gradientUnits="userSpaceOnUse" gradientTransform="translate(8.80888 8.80888) rotate(90) scale(8.80888)">
<stop stop-color="#E9FB18"/>
<stop offset="1" stop-color="#DDBC11"/>
</radialGradient>
<radialGradient id="paint35_radial" cx="0" cy="0" r="1" gradientUnits="userSpaceOnUse" gradientTransform="translate(7.50188 7.50188) rotate(90) scale(7.50188)">
<stop stop-color="#E9FB18"/>
<stop offset="1" stop-color="#DDBC11"/>
</radialGradient>
<radialGradient id="paint36_radial" cx="0" cy="0" r="1" gradientUnits="userSpaceOnUse" gradientTransform="translate(677.146 111.717) rotate(-139.324) scale(8.80888 7.62871)">
<stop stop-color="#F2FF5C"/>
<stop offset="1" stop-color="#FFC700"/>
</radialGradient>
<radialGradient id="paint37_radial" cx="0" cy="0" r="1" gradientUnits="userSpaceOnUse" gradientTransform="translate(8.80888 8.80888) rotate(90) scale(8.80888)">
<stop stop-color="#E9FB18"/>
<stop offset="1" stop-color="#DDBC11"/>
</radialGradient>
<radialGradient id="paint38_radial" cx="0" cy="0" r="1" gradientUnits="userSpaceOnUse" gradientTransform="translate(7.50188 7.50188) rotate(90) scale(7.50188)">
<stop stop-color="#E9FB18"/>
<stop offset="1" stop-color="#DDBC11"/>
</radialGradient>
<radialGradient id="paint39_radial" cx="0" cy="0" r="1" gradientUnits="userSpaceOnUse" gradientTransform="translate(645.411 51.8973) rotate(-164.693) scale(15.7933 13.6774)">
<stop stop-color="#F2FF5C"/>
<stop offset="1" stop-color="#FFC700"/>
</radialGradient>
<radialGradient id="paint40_radial" cx="0" cy="0" r="1" gradientUnits="userSpaceOnUse" gradientTransform="translate(15.7933 15.7933) rotate(90) scale(15.7933)">
<stop stop-color="#E9FB18"/>
<stop offset="1" stop-color="#DDBC11"/>
</radialGradient>
<radialGradient id="paint41_radial" cx="0" cy="0" r="1" gradientUnits="userSpaceOnUse" gradientTransform="translate(13.45 13.45) rotate(90) scale(13.45)">
<stop stop-color="#E9FB18"/>
<stop offset="1" stop-color="#DDBC11"/>
</radialGradient>
<radialGradient id="paint42_radial" cx="0" cy="0" r="1" gradientUnits="userSpaceOnUse" gradientTransform="translate(639.566 144.141) rotate(-139.324) scale(6.95545 6.0236)">
<stop stop-color="#F2FF5C"/>
<stop offset="1" stop-color="#FFC700"/>
</radialGradient>
<radialGradient id="paint43_radial" cx="0" cy="0" r="1" gradientUnits="userSpaceOnUse" gradientTransform="translate(6.95545 6.95545) rotate(90) scale(6.95545)">
<stop stop-color="#E9FB18"/>
<stop offset="1" stop-color="#DDBC11"/>
</radialGradient>
<radialGradient id="paint44_radial" cx="0" cy="0" r="1" gradientUnits="userSpaceOnUse" gradientTransform="translate(5.92345 5.92345) rotate(90) scale(5.92345)">
<stop stop-color="#E9FB18"/>
<stop offset="1" stop-color="#DDBC11"/>
</radialGradient>
<radialGradient id="paint45_radial" cx="0" cy="0" r="1" gradientUnits="userSpaceOnUse" gradientTransform="translate(423.345 547.871) rotate(-36.8462) scale(11.9744 10.3701)">
<stop stop-color="#F2FF5C"/>
<stop offset="1" stop-color="#FFC700"/>
</radialGradient>
<radialGradient id="paint46_radial" cx="0" cy="0" r="1" gradientUnits="userSpaceOnUse" gradientTransform="translate(11.9744 11.9744) rotate(90) scale(11.9744)">
<stop stop-color="#E9FB18"/>
<stop offset="1" stop-color="#DDBC11"/>
</radialGradient>
<radialGradient id="paint47_radial" cx="0" cy="0" r="1" gradientUnits="userSpaceOnUse" gradientTransform="translate(10.1977 10.1977) rotate(90) scale(10.1977)">
<stop stop-color="#E9FB18"/>
<stop offset="1" stop-color="#DDBC11"/>
</radialGradient>
<radialGradient id="paint48_radial" cx="0" cy="0" r="1" gradientUnits="userSpaceOnUse" gradientTransform="translate(449.842 590.979) rotate(-40.6761) scale(6.67887 5.78407)">
<stop stop-color="#F2FF5C"/>
<stop offset="1" stop-color="#FFC700"/>
</radialGradient>
<radialGradient id="paint49_radial" cx="0" cy="0" r="1" gradientUnits="userSpaceOnUse" gradientTransform="translate(6.67887 6.67887) rotate(90) scale(6.67887)">
<stop stop-color="#E9FB18"/>
<stop offset="1" stop-color="#DDBC11"/>
</radialGradient>
<radialGradient id="paint50_radial" cx="0" cy="0" r="1" gradientUnits="userSpaceOnUse" gradientTransform="translate(5.68791 5.68791) rotate(90) scale(5.68791)">
<stop stop-color="#E9FB18"/>
<stop offset="1" stop-color="#DDBC11"/>
</radialGradient>
<radialGradient id="paint51_radial" cx="0" cy="0" r="1" gradientUnits="userSpaceOnUse" gradientTransform="translate(402.469 609.783) rotate(-40.6761) scale(5.27361 4.56708)">
<stop stop-color="#F2FF5C"/>
<stop offset="1" stop-color="#FFC700"/>
</radialGradient>
<radialGradient id="paint52_radial" cx="0" cy="0" r="1" gradientUnits="userSpaceOnUse" gradientTransform="translate(5.27361 5.27361) rotate(90) scale(5.27361)">
<stop stop-color="#E9FB18"/>
<stop offset="1" stop-color="#DDBC11"/>
</radialGradient>
<radialGradient id="paint53_radial" cx="0" cy="0" r="1" gradientUnits="userSpaceOnUse" gradientTransform="translate(4.49115 4.49115) rotate(90) scale(4.49115)">
<stop stop-color="#E9FB18"/>
<stop offset="1" stop-color="#DDBC11"/>
</radialGradient>
<radialGradient id="paint54_radial" cx="0" cy="0" r="1" gradientUnits="userSpaceOnUse" gradientTransform="translate(777.345 329.871) rotate(-36.8462) scale(11.9744 10.3701)">
<stop stop-color="#F2FF5C"/>
<stop offset="1" stop-color="#FFC700"/>
</radialGradient>
<radialGradient id="paint55_radial" cx="0" cy="0" r="1" gradientUnits="userSpaceOnUse" gradientTransform="translate(11.9744 11.9744) rotate(90) scale(11.9744)">
<stop stop-color="#E9FB18"/>
<stop offset="1" stop-color="#DDBC11"/>
</radialGradient>
<radialGradient id="paint56_radial" cx="0" cy="0" r="1" gradientUnits="userSpaceOnUse" gradientTransform="translate(10.1977 10.1977) rotate(90) scale(10.1977)">
<stop stop-color="#E9FB18"/>
<stop offset="1" stop-color="#DDBC11"/>
</radialGradient>
<radialGradient id="paint57_radial" cx="0" cy="0" r="1" gradientUnits="userSpaceOnUse" gradientTransform="translate(803.842 372.979) rotate(-40.6761) scale(6.67887 5.78407)">
<stop stop-color="#F2FF5C"/>
<stop offset="1" stop-color="#FFC700"/>
</radialGradient>
<radialGradient id="paint58_radial" cx="0" cy="0" r="1" gradientUnits="userSpaceOnUse" gradientTransform="translate(6.67887 6.67887) rotate(90) scale(6.67887)">
<stop stop-color="#E9FB18"/>
<stop offset="1" stop-color="#DDBC11"/>
</radialGradient>
<radialGradient id="paint59_radial" cx="0" cy="0" r="1" gradientUnits="userSpaceOnUse" gradientTransform="translate(5.68791 5.68791) rotate(90) scale(5.68791)">
<stop stop-color="#E9FB18"/>
<stop offset="1" stop-color="#DDBC11"/>
</radialGradient>
<radialGradient id="paint60_radial" cx="0" cy="0" r="1" gradientUnits="userSpaceOnUse" gradientTransform="translate(756.469 391.783) rotate(-40.6761) scale(5.27361 4.56708)">
<stop stop-color="#F2FF5C"/>
<stop offset="1" stop-color="#FFC700"/>
</radialGradient>
<radialGradient id="paint61_radial" cx="0" cy="0" r="1" gradientUnits="userSpaceOnUse" gradientTransform="translate(5.27361 5.27361) rotate(90) scale(5.27361)">
<stop stop-color="#E9FB18"/>
<stop offset="1" stop-color="#DDBC11"/>
</radialGradient>
<radialGradient id="paint62_radial" cx="0" cy="0" r="1" gradientUnits="userSpaceOnUse" gradientTransform="translate(4.49115 4.49115) rotate(90) scale(4.49115)">
<stop stop-color="#E9FB18"/>
<stop offset="1" stop-color="#DDBC11"/>
</radialGradient>
</defs>
</svg>
