<svg width="30" height="36" viewBox="0 0 30 36" fill="none" xmlns="http://www.w3.org/2000/svg">
<path d="M4.58014 15.8278L0.250137 15.7678C0.250137 15.7678 -0.119862 13.2978 0.0401383 9.35785C0.320138 2.66785 1.00014 0.557846 1.00014 0.557846H4.58014V15.8278Z" fill="white"/>
<path d="M4.56012 15.4278C4.56012 15.4278 4.42012 10.9578 7.86012 11.1878C10.6101 11.3678 15.4001 12.8679 19.1301 11.6279C19.1301 11.6279 11.9501 17.4378 9.04012 26.2978C7.66012 30.4978 8.27012 35.1578 8.27012 35.1578H20.8601C20.8601 35.1578 18.0701 18.1078 29.1801 3.78785L26.1801 1.78785C26.1801 1.78785 24.3101 2.62785 20.9701 2.17785C16.6201 1.59785 11.4401 -2.61215 4.56012 2.50785V15.4278Z" fill="white"/>
</svg>
