<svg width="44" height="44" viewBox="0 0 44 44" fill="none" xmlns="http://www.w3.org/2000/svg">
<path d="M24.544 27.4C25.704 28.98 27.556 30 29.636 30C33.152 30 36 27.088 36 23.5C36 22.032 35.508 20.696 34.704 19.608L34.728 19.6L22 4L9.272 19.6L9.296 19.608C8.496 20.696 8 22.032 8 23.5C8 27.088 10.848 30 14.36 30C16.444 30 18.292 28.98 19.456 27.4L20.5 25.976V34C20.5 36 13.5 37 13.5 37C13.1022 37 12.7206 37.158 12.4393 37.4393C12.158 37.7206 12 38.1022 12 38.5C12 38.8978 12.158 39.2794 12.4393 39.5607C12.7206 39.842 13.1022 40 13.5 40H30.5C30.8978 40 31.2794 39.842 31.5607 39.5607C31.842 39.2794 32 38.8978 32 38.5C32 38.1022 31.842 37.7206 31.5607 37.4393C31.2794 37.158 30.8978 37 30.5 37C30.5 37 23.5 36 23.5 34V25.976L24.544 27.4Z" fill="white"/>
</svg>
