<?xml version="1.0" encoding="UTF-8" standalone="no"?>
<!-- Generator: Adobe Illustrator 24.0.0, SVG Export Plug-In . SVG Version: 6.00 Build 0)  -->

<svg
   xmlns:dc="http://purl.org/dc/elements/1.1/"
   xmlns:cc="http://creativecommons.org/ns#"
   xmlns:rdf="http://www.w3.org/1999/02/22-rdf-syntax-ns#"
   xmlns:svg="http://www.w3.org/2000/svg"
   xmlns="http://www.w3.org/2000/svg"
   xmlns:sodipodi="http://sodipodi.sourceforge.net/DTD/sodipodi-0.dtd"
   xmlns:inkscape="http://www.inkscape.org/namespaces/inkscape"
   version="1.1"
   id="Layer_1"
   x="0px"
   y="0px"
   viewBox="0 0 31.7 32"
   style="enable-background:new 0 0 31.7 32;"
   xml:space="preserve"
   inkscape:version="0.91+devel+osxmenu r12922"
   sodipodi:docname="pancakeswap-cake-logo.svg"><metadata
     id="metadata4158"><rdf:RDF><cc:Work
         rdf:about=""><dc:format>image/svg+xml</dc:format><dc:type
           rdf:resource="http://purl.org/dc/dcmitype/StillImage" /></cc:Work></rdf:RDF></metadata><defs
     id="defs4156" /><sodipodi:namedview
     pagecolor="#ffffff"
     bordercolor="#666666"
     borderopacity="1"
     objecttolerance="10"
     gridtolerance="10"
     guidetolerance="10"
     inkscape:pageopacity="0"
     inkscape:pageshadow="2"
     inkscape:window-width="1424"
     inkscape:window-height="773"
     id="namedview4154"
     showgrid="false"
     inkscape:zoom="16.59375"
     inkscape:cx="12.71629"
     inkscape:cy="16"
     inkscape:window-x="0"
     inkscape:window-y="23"
     inkscape:window-maximized="0"
     inkscape:current-layer="Layer_1" /><style
     type="text/css"
     id="style4142">
	.st0{fill-rule:evenodd;clip-rule:evenodd;fill:#633001;}
	.st1{fill:#FEDC90;}
	.st2{fill-rule:evenodd;clip-rule:evenodd;fill:#D1884F;}
	.st3{fill:#633001;}
</style><path
     sodipodi:type="inkscape:offset"
     inkscape:radius="0"
     inkscape:original="M 9.8007812 0 C 7.2007813 0 5.1992188 2.4 5.6992188 5 L 6.8007812 11.099609 C 2.9007813 12.799609 0 15.8 0 19.5 L 0 21.800781 C -5.9211895e-16 24.900781 2.0007813 27.499219 4.8007812 29.199219 C 7.7007813 30.999219 11.500781 32 15.800781 32 C 20.100781 32 23.900781 30.999219 26.800781 29.199219 C 29.700781 27.499219 31.699219 24.900781 31.699219 21.800781 L 31.699219 19.5 C 31.699219 15.8 28.700781 12.799609 24.800781 11.099609 L 25.900391 5 C 26.300391 2.4 24.299219 0 21.699219 0 C 19.399219 5.9211895e-16 17.5 1.8992188 17.5 4.1992188 L 17.5 9.4003906 C 16.9 9.3003906 16.400781 9.3007812 15.800781 9.3007812 C 15.200781 9.3007813 14.6 9.4003906 14 9.4003906 L 14 4.1992188 C 14 1.8992187 12.100781 0 9.8007812 0 z M 21.699219 1.1992188 C 23.599219 1.1992188 24.899609 2.8992188 24.599609 4.6992188 L 23.300781 11.900391 C 27.600781 13.500391 30.400781 16.299609 30.300781 19.599609 L 30.300781 21.900391 C 30.300781 26.800391 23.800781 30.800781 15.800781 30.800781 C 7.8007812 30.800781 1.3007812 26.800391 1.3007812 21.900391 L 1.3007812 19.599609 C 1.3007812 16.399609 4.1007812 13.6 8.3007812 12 L 7 4.8007812 C 6.6 3.0007813 8.0007812 1.3007812 9.8007812 1.3007812 C 11.400781 1.3007812 12.699219 2.5992188 12.699219 4.1992188 L 12.699219 10.699219 C 13.099219 10.699219 13.6 10.599609 14 10.599609 C 14.6 10.499609 15.200781 10.5 15.800781 10.5 C 16.400781 10.5 16.9 10.599609 17.5 10.599609 C 17.9 10.599609 18.400781 10.599219 18.800781 10.699219 L 18.800781 4.0996094 C 18.800781 2.4996094 20.099219 1.1992188 21.699219 1.1992188 z "
     style="clip-rule:evenodd;fill:#633001;fill-rule:evenodd"
     id="path4144"
     d="M 9.8007812,0 C 7.2007813,0 5.1992188,2.4 5.6992188,5 l 1.1015624,6.099609 C 2.9007813,12.799609 0,15.8 0,19.5 l 0,2.300781 c 0,3.1 2.0007813,5.698438 4.8007812,7.398438 C 7.7007813,30.999219 11.500781,32 15.800781,32 c 4.3,0 8.1,-1.000781 11,-2.800781 2.9,-1.7 4.898438,-4.298438 4.898438,-7.398438 l 0,-2.300781 c 0,-3.7 -2.998438,-6.700391 -6.898438,-8.400391 L 25.900391,5 c 0.4,-2.6 -1.601172,-5 -4.201172,-5 C 19.399219,0 17.5,1.8992188 17.5,4.1992188 l 0,5.2011718 c -0.6,-0.1 -1.099219,-0.099609 -1.699219,-0.099609 -0.6,1e-7 -1.200781,0.099609 -1.800781,0.099609 L 14,4.1992188 C 14,1.8992187 12.100781,0 9.8007812,0 Z M 21.699219,1.1992188 c 1.9,0 3.20039,1.7 2.90039,3.5 l -1.298828,7.2011722 c 4.3,1.6 7.1,4.399218 7,7.699218 l 0,2.300782 c 0,4.9 -6.5,8.90039 -14.5,8.90039 -7.9999998,0 -14.4999998,-4.00039 -14.4999998,-8.90039 l 0,-2.300782 c 0,-3.2 2.8,-5.999609 7,-7.599609 L 7,4.8007812 c -0.4,-1.7999999 1.0007812,-3.5 2.8007812,-3.5 1.5999998,0 2.8984378,1.2984376 2.8984378,2.8984376 l 0,6.5000002 c 0.4,0 0.900781,-0.09961 1.300781,-0.09961 0.6,-0.1 1.200781,-0.09961 1.800781,-0.09961 0.6,0 1.099219,0.09961 1.699219,0.09961 0.4,0 0.900781,-3.9e-4 1.300781,0.09961 l 0,-6.5996096 c 0,-1.6 1.298438,-2.9003906 2.898438,-2.9003906 z" /><path
     class="st1"
     d="m 30.51866,21.837646 c 0,4.992648 -6.559769,9.068278 -14.63333,9.068278 -8.0735613,0 -14.63333,-4.07563 -14.63333,-9.068278 l 0,-2.343489 29.367579,0 c 0.06445,0.703146 -0.03874,1.835252 -0.100916,2.343489 z"
     id="path4146"
     inkscape:connector-curvature="0"
     style="fill:#fedc90;stroke-width:1.01403987"
     sodipodi:nodetypes="cssccc" /><path
     style="clip-rule:evenodd;fill:#d1884f;fill-rule:evenodd;stroke-width:1.0163269"
     d="m 9.7366754,0.858667 c -1.8247655,0 -3.2448195,1.7321332 -2.839316,3.5661563 L 8.3007812,12 c -4.2577861,1.630243 -7.080074,4.24289 -7.080074,7.503376 0,4.992618 6.5894305,9.068624 14.6994998,9.068624 8.110069,0 14.6995,-4.076006 14.6995,-9.068624 0,-3.260486 -2.939505,-6.113013 -7.197291,-7.743256 L 24.739114,4.4248233 C 25.043242,2.5908002 23.623585,0.858667 21.798819,0.858667 c -1.622014,0 -3.148182,1.3232395 -3.119107,2.9532233 l 0.121069,6.7873997 c -1.013759,-0.101891 -1.967795,-0.205767 -2.981553,-0.205767 -1.115135,0 -2.106249,0.103876 -3.120008,0.205767 L 12.73526,3.872154 C 12.743988,2.2419344 11.358689,0.8586671 9.7366754,0.858667 Z"
     id="path4148"
     inkscape:connector-curvature="0"
     sodipodi:nodetypes="sccsssccsscscss" /><path
     class="st3"
     d="M11.8,18.9c0,1.3-0.7,2.4-1.6,2.4c-0.9,0-1.6-1.1-1.6-2.4s0.7-2.4,1.6-2.4C11.1,16.5,11.8,17.6,11.8,18.9z"
     id="path4150" /><path
     class="st3"
     d="M22.9,18.9c0,1.3-0.7,2.4-1.6,2.4c-0.9,0-1.6-1.1-1.6-2.4s0.7-2.4,1.6-2.4C22.2,16.5,22.9,17.6,22.9,18.9z"
     id="path4152" /></svg>