<svg width="205" height="244" viewBox="0 0 205 244" fill="none" xmlns="http://www.w3.org/2000/svg">
<g filter="url(#filter0_d)">
<circle cx="48.9711" cy="160.253" r="27.9086" fill="url(#paint0_radial)"/>
</g>
<path fill-rule="evenodd" clip-rule="evenodd" d="M60.4729 160.253C60.4729 163.303 59.2611 166.229 57.1041 168.386C54.9471 170.543 52.0216 171.754 48.9712 171.754C45.9207 171.754 42.9952 170.543 40.8382 168.386C38.6812 166.229 37.4694 163.303 37.4694 160.253C37.4694 157.202 38.6812 154.277 40.8382 152.12C42.9952 149.963 45.9207 148.751 48.9712 148.751C52.0216 148.751 54.9471 149.963 57.1041 152.12C59.2611 154.277 60.4729 157.202 60.4729 160.253V160.253ZM48.9712 155.939C48.7185 155.939 48.4703 156.006 48.2515 156.132C48.0327 156.258 47.851 156.44 47.7247 156.658C47.6335 156.828 47.5092 156.977 47.3591 157.098C47.2091 157.218 47.0364 157.308 46.8513 157.36C46.6661 157.413 46.4723 157.427 46.2813 157.404C46.0904 157.38 45.9061 157.318 45.7394 157.222C45.5728 157.126 45.4272 156.997 45.3112 156.843C45.1952 156.69 45.1113 156.514 45.0643 156.328C45.0174 156.141 45.0084 155.947 45.0379 155.757C45.0673 155.567 45.1347 155.384 45.236 155.221C45.7107 154.398 46.4435 153.756 47.3207 153.392C48.1979 153.029 49.1704 152.965 50.0875 153.211C51.0046 153.457 51.815 153.998 52.393 154.752C52.9709 155.505 53.2843 156.428 53.2843 157.377C53.2846 158.269 53.0082 159.14 52.4932 159.869C51.9783 160.597 51.25 161.148 50.4089 161.446V161.69C50.4089 162.072 50.2574 162.437 49.9878 162.707C49.7181 162.977 49.3525 163.128 48.9712 163.128C48.5898 163.128 48.2242 162.977 47.9545 162.707C47.6849 162.437 47.5334 162.072 47.5334 161.69V160.253C47.5334 159.871 47.6849 159.506 47.9545 159.236C48.2242 158.966 48.5898 158.815 48.9712 158.815C49.3525 158.815 49.7181 158.663 49.9878 158.394C50.2574 158.124 50.4089 157.758 50.4089 157.377C50.4089 156.996 50.2574 156.63 49.9878 156.361C49.7181 156.091 49.3525 155.939 48.9712 155.939ZM48.9712 167.441C49.3525 167.441 49.7181 167.29 49.9878 167.02C50.2574 166.75 50.4089 166.385 50.4089 166.003C50.4089 165.622 50.2574 165.256 49.9878 164.987C49.7181 164.717 49.3525 164.566 48.9712 164.566C48.5898 164.566 48.2242 164.717 47.9545 164.987C47.6849 165.256 47.5334 165.622 47.5334 166.003C47.5334 166.385 47.6849 166.75 47.9545 167.02C48.2242 167.29 48.5898 167.441 48.9712 167.441V167.441Z" fill="white"/>
<g filter="url(#filter1_d)">
<circle cx="156.619" cy="48.6182" r="32.8923" fill="url(#paint1_radial)"/>
</g>
<path fill-rule="evenodd" clip-rule="evenodd" d="M170.174 48.6182C170.174 52.2133 168.746 55.6612 166.204 58.2034C163.662 60.7456 160.214 62.1738 156.619 62.1738C153.023 62.1738 149.576 60.7456 147.033 58.2034C144.491 55.6612 143.063 52.2133 143.063 48.6182C143.063 45.023 144.491 41.5751 147.033 39.0329C149.576 36.4907 153.023 35.0625 156.619 35.0625C160.214 35.0625 163.662 36.4907 166.204 39.0329C168.746 41.5751 170.174 45.023 170.174 48.6182V48.6182ZM156.619 43.5348C156.321 43.5345 156.028 43.6127 155.77 43.7614C155.513 43.9101 155.298 44.1242 155.15 44.382C155.042 44.5818 154.896 44.7579 154.719 44.9C154.542 45.042 154.338 45.1471 154.12 45.2091C153.902 45.271 153.674 45.2885 153.448 45.2606C153.223 45.2326 153.006 45.1597 152.81 45.0463C152.613 44.9328 152.442 44.7811 152.305 44.6C152.168 44.419 152.069 44.2124 152.014 43.9924C151.959 43.7725 151.948 43.5436 151.983 43.3195C152.018 43.0953 152.097 42.8805 152.216 42.6876C152.776 41.7185 153.64 40.9612 154.673 40.533C155.707 40.1048 156.853 40.0297 157.934 40.3193C159.015 40.609 159.97 41.2471 160.651 42.1348C161.333 43.0226 161.702 44.1103 161.702 45.2292C161.702 46.2809 161.377 47.3067 160.77 48.1655C160.163 49.0243 159.304 49.6738 158.313 50.0245V50.3126C158.313 50.762 158.135 51.193 157.817 51.5108C157.499 51.8285 157.068 52.0071 156.619 52.0071C156.169 52.0071 155.738 51.8285 155.42 51.5108C155.103 51.193 154.924 50.762 154.924 50.3126V48.6182C154.924 48.1688 155.103 47.7378 155.42 47.42C155.738 47.1022 156.169 46.9237 156.619 46.9237C157.068 46.9237 157.499 46.7452 157.817 46.4274C158.135 46.1096 158.313 45.6786 158.313 45.2292C158.313 44.7799 158.135 44.3489 157.817 44.0311C157.499 43.7133 157.068 43.5348 156.619 43.5348ZM156.619 57.0904C157.068 57.0904 157.499 56.9119 157.817 56.5941C158.135 56.2763 158.313 55.8454 158.313 55.396C158.313 54.9466 158.135 54.5156 157.817 54.1978C157.499 53.88 157.068 53.7015 156.619 53.7015C156.169 53.7015 155.738 53.88 155.42 54.1978C155.103 54.5156 154.924 54.9466 154.924 55.396C154.924 55.8454 155.103 56.2763 155.42 56.5941C155.738 56.9119 156.169 57.0904 156.619 57.0904V57.0904Z" fill="white"/>
<g filter="url(#filter2_d)">
<circle cx="152.133" cy="145.8" r="26.4135" fill="url(#paint2_radial)"/>
</g>
<g filter="url(#filter3_d)">
<circle cx="84.3552" cy="204.607" r="23.4233" fill="url(#paint3_radial)"/>
</g>
<g filter="url(#filter4_d)">
<circle cx="38.5055" cy="55.0969" r="23.4233" fill="url(#paint4_radial)"/>
</g>
<defs>
<filter id="filter0_d" x="6.0625" y="117.344" width="85.8172" height="85.8172" filterUnits="userSpaceOnUse" color-interpolation-filters="sRGB">
<feFlood flood-opacity="0" result="BackgroundImageFix"/>
<feColorMatrix in="SourceAlpha" type="matrix" values="0 0 0 0 0 0 0 0 0 0 0 0 0 0 0 0 0 0 127 0"/>
<feOffset/>
<feGaussianBlur stdDeviation="7.5"/>
<feColorMatrix type="matrix" values="0 0 0 0 0.979167 0 0 0 0 0.310069 0 0 0 0 0.671382 0 0 0 0.5 0"/>
<feBlend mode="normal" in2="BackgroundImageFix" result="effect1_dropShadow"/>
<feBlend mode="normal" in="SourceGraphic" in2="effect1_dropShadow" result="shape"/>
</filter>
<filter id="filter1_d" x="108.726" y="0.725861" width="95.7846" height="95.7846" filterUnits="userSpaceOnUse" color-interpolation-filters="sRGB">
<feFlood flood-opacity="0" result="BackgroundImageFix"/>
<feColorMatrix in="SourceAlpha" type="matrix" values="0 0 0 0 0 0 0 0 0 0 0 0 0 0 0 0 0 0 127 0"/>
<feOffset/>
<feGaussianBlur stdDeviation="7.5"/>
<feColorMatrix type="matrix" values="0 0 0 0 0.979167 0 0 0 0 0.872111 0 0 0 0 0.310069 0 0 0 0.5 0"/>
<feBlend mode="normal" in2="BackgroundImageFix" result="effect1_dropShadow"/>
<feBlend mode="normal" in="SourceGraphic" in2="effect1_dropShadow" result="shape"/>
</filter>
<filter id="filter2_d" x="110.72" y="104.386" width="82.827" height="82.827" filterUnits="userSpaceOnUse" color-interpolation-filters="sRGB">
<feFlood flood-opacity="0" result="BackgroundImageFix"/>
<feColorMatrix in="SourceAlpha" type="matrix" values="0 0 0 0 0 0 0 0 0 0 0 0 0 0 0 0 0 0 127 0"/>
<feOffset/>
<feGaussianBlur stdDeviation="7.5"/>
<feColorMatrix type="matrix" values="0 0 0 0 0.241667 0 0 0 0 0.24066 0 0 0 0 0.24066 0 0 0 1 0"/>
<feBlend mode="normal" in2="BackgroundImageFix" result="effect1_dropShadow"/>
<feBlend mode="normal" in="SourceGraphic" in2="effect1_dropShadow" result="shape"/>
</filter>
<filter id="filter3_d" x="45.9319" y="166.184" width="76.8466" height="76.8466" filterUnits="userSpaceOnUse" color-interpolation-filters="sRGB">
<feFlood flood-opacity="0" result="BackgroundImageFix"/>
<feColorMatrix in="SourceAlpha" type="matrix" values="0 0 0 0 0 0 0 0 0 0 0 0 0 0 0 0 0 0 127 0"/>
<feOffset/>
<feGaussianBlur stdDeviation="7.5"/>
<feColorMatrix type="matrix" values="0 0 0 0 0.241667 0 0 0 0 0.24066 0 0 0 0 0.24066 0 0 0 1 0"/>
<feBlend mode="normal" in2="BackgroundImageFix" result="effect1_dropShadow"/>
<feBlend mode="normal" in="SourceGraphic" in2="effect1_dropShadow" result="shape"/>
</filter>
<filter id="filter4_d" x="0.0821533" y="16.6736" width="76.8466" height="76.8466" filterUnits="userSpaceOnUse" color-interpolation-filters="sRGB">
<feFlood flood-opacity="0" result="BackgroundImageFix"/>
<feColorMatrix in="SourceAlpha" type="matrix" values="0 0 0 0 0 0 0 0 0 0 0 0 0 0 0 0 0 0 127 0"/>
<feOffset/>
<feGaussianBlur stdDeviation="7.5"/>
<feColorMatrix type="matrix" values="0 0 0 0 0.241667 0 0 0 0 0.24066 0 0 0 0 0.24066 0 0 0 1 0"/>
<feBlend mode="normal" in2="BackgroundImageFix" result="effect1_dropShadow"/>
<feBlend mode="normal" in="SourceGraphic" in2="effect1_dropShadow" result="shape"/>
</filter>
<radialGradient id="paint0_radial" cx="0" cy="0" r="1" gradientUnits="userSpaceOnUse" gradientTransform="translate(61.234 155.601) rotate(110.638) scale(34.7928)">
<stop stop-color="#FA4FAB"/>
<stop offset="1" stop-color="#330074"/>
</radialGradient>
<radialGradient id="paint1_radial" cx="0" cy="0" r="1" gradientUnits="userSpaceOnUse" gradientTransform="translate(171.071 43.1361) rotate(110.638) scale(41.0057)">
<stop stop-color="#FADE4F"/>
<stop offset="1" stop-color="#A32801"/>
</radialGradient>
<radialGradient id="paint2_radial" cx="0" cy="0" r="1" gradientUnits="userSpaceOnUse" gradientTransform="translate(163.739 141.398) rotate(110.638) scale(32.9289)">
<stop stop-color="#ACACAC"/>
<stop offset="1" stop-color="#373737"/>
</radialGradient>
<radialGradient id="paint3_radial" cx="0" cy="0" r="1" gradientUnits="userSpaceOnUse" gradientTransform="translate(94.6472 200.704) rotate(110.638) scale(29.2011)">
<stop stop-color="#ACACAC"/>
<stop offset="1" stop-color="#373737"/>
</radialGradient>
<radialGradient id="paint4_radial" cx="0" cy="0" r="1" gradientUnits="userSpaceOnUse" gradientTransform="translate(48.7975 51.193) rotate(110.638) scale(29.2011)">
<stop stop-color="#ACACAC"/>
<stop offset="1" stop-color="#373737"/>
</radialGradient>
</defs>
</svg>
