<svg width="411" height="466" viewBox="0 0 411 466" fill="none" xmlns="http://www.w3.org/2000/svg">
<g style="mix-blend-mode:multiply" opacity="0.2" filter="url(#filter0_f)">
<rect width="236.782" height="236.782" rx="118.391" transform="matrix(0.866025 0.5 -0.866025 0.5 205.06 228.969)" fill="url(#paint0_linear)"/>
</g>
<path fill-rule="evenodd" clip-rule="evenodd" d="M69.8191 268.955L91.6081 222.691H134.614C178.421 208.155 232.748 208.155 276.554 222.691H318.489L340.462 267.407C342.088 270.154 343.456 272.941 344.564 275.755L344.573 275.772H344.571C355.063 302.431 342.331 331.52 306.377 352.278C250.71 384.417 160.458 384.417 104.792 352.278C65.7448 329.734 54.0873 297.366 69.8191 268.955Z" fill="url(#paint1_linear)"/>
<rect width="186.328" height="186.328" rx="93.1639" transform="matrix(0.866025 0.5 -0.866025 0.5 205.01 136.324)" fill="url(#paint2_linear)"/>
<g style="mix-blend-mode:multiply">
<rect width="152.052" height="152.052" rx="76.0262" transform="matrix(0.866025 0.5 -0.866025 0.5 205.01 153.462)" fill="url(#paint3_linear)"/>
</g>
<g style="mix-blend-mode:hard-light" filter="url(#filter1_f)">
<path fill-rule="evenodd" clip-rule="evenodd" d="M173.402 12.9068H162.23V117.357H162.653L167.826 120.465L172.999 117.357H173.402V117.115L173.421 117.103L173.402 117.091V12.9068Z" fill="url(#paint4_linear)"/>
</g>
<g style="mix-blend-mode:hard-light" filter="url(#filter2_f)">
<path fill-rule="evenodd" clip-rule="evenodd" d="M214.643 44.1271H208.436V148.577H208.671L211.545 151.686L214.419 148.577H214.643V148.335L214.654 148.323L214.643 148.312V44.1271Z" fill="url(#paint5_linear)"/>
</g>
<g style="mix-blend-mode:hard-light" filter="url(#filter3_f)">
<path fill-rule="evenodd" clip-rule="evenodd" d="M194.662 1.4852H188.455V64.8797H188.69L191.564 66.7664L194.438 64.8797H194.662V64.7327L194.673 64.7257L194.662 64.7186V1.4852Z" fill="url(#paint6_linear)"/>
</g>
<g style="mix-blend-mode:hard-light" filter="url(#filter4_f)">
<path fill-rule="evenodd" clip-rule="evenodd" d="M244.614 2.88947H238.408L238.408 101.063L238.408 101.302H238.642L241.516 104.231L244.391 101.302H244.614V101.074L244.625 101.063L244.614 101.052V2.88947Z" fill="url(#paint7_linear)"/>
</g>
<defs>
<filter id="filter0_f" x="45.0606" y="248.645" width="319.998" height="197.431" filterUnits="userSpaceOnUse" color-interpolation-filters="sRGB">
<feFlood flood-opacity="0" result="BackgroundImageFix"/>
<feBlend mode="normal" in="SourceGraphic" in2="BackgroundImageFix" result="shape"/>
<feGaussianBlur stdDeviation="7.5" result="effect1_foregroundBlur"/>
</filter>
<filter id="filter1_f" x="161.23" y="11.9068" width="13.1911" height="109.559" filterUnits="userSpaceOnUse" color-interpolation-filters="sRGB">
<feFlood flood-opacity="0" result="BackgroundImageFix"/>
<feBlend mode="normal" in="SourceGraphic" in2="BackgroundImageFix" result="shape"/>
<feGaussianBlur stdDeviation="0.5" result="effect1_foregroundBlur"/>
</filter>
<filter id="filter2_f" x="207.436" y="43.1271" width="8.21736" height="109.559" filterUnits="userSpaceOnUse" color-interpolation-filters="sRGB">
<feFlood flood-opacity="0" result="BackgroundImageFix"/>
<feBlend mode="normal" in="SourceGraphic" in2="BackgroundImageFix" result="shape"/>
<feGaussianBlur stdDeviation="0.5" result="effect1_foregroundBlur"/>
</filter>
<filter id="filter3_f" x="187.455" y="0.485199" width="8.21731" height="67.2812" filterUnits="userSpaceOnUse" color-interpolation-filters="sRGB">
<feFlood flood-opacity="0" result="BackgroundImageFix"/>
<feBlend mode="normal" in="SourceGraphic" in2="BackgroundImageFix" result="shape"/>
<feGaussianBlur stdDeviation="0.5" result="effect1_foregroundBlur"/>
</filter>
<filter id="filter4_f" x="237.408" y="1.88947" width="8.21723" height="103.341" filterUnits="userSpaceOnUse" color-interpolation-filters="sRGB">
<feFlood flood-opacity="0" result="BackgroundImageFix"/>
<feBlend mode="normal" in="SourceGraphic" in2="BackgroundImageFix" result="shape"/>
<feGaussianBlur stdDeviation="0.5" result="effect1_foregroundBlur"/>
</filter>
<linearGradient id="paint0_linear" x1="293.865" y1="81.1064" x2="70.3563" y2="7.91696" gradientUnits="userSpaceOnUse">
<stop stop-color="#21DCAF"/>
<stop offset="1" stop-color="#0F7E64"/>
</linearGradient>
<linearGradient id="paint1_linear" x1="416.853" y1="268.168" x2="191.415" y2="140.306" gradientUnits="userSpaceOnUse">
<stop stop-color="#AAF2E1"/>
<stop offset="1" stop-color="#139979"/>
</linearGradient>
<linearGradient id="paint2_linear" x1="16.9412" y1="26.2936" x2="174.266" y2="-6.83665" gradientUnits="userSpaceOnUse">
<stop stop-color="#74BDAC"/>
<stop offset="1" stop-color="#39FFDB"/>
</linearGradient>
<linearGradient id="paint3_linear" x1="13.8248" y1="21.4568" x2="142.209" y2="-5.57904" gradientUnits="userSpaceOnUse">
<stop stop-color="#74BDAC"/>
<stop offset="1" stop-color="#39FFDB"/>
</linearGradient>
<linearGradient id="paint4_linear" x1="167.83" y1="45.4717" x2="167.83" y2="120.465" gradientUnits="userSpaceOnUse">
<stop stop-color="#B9FFF2" stop-opacity="0"/>
<stop offset="1" stop-color="#30FFDA"/>
</linearGradient>
<linearGradient id="paint5_linear" x1="211.547" y1="76.6919" x2="211.547" y2="151.686" gradientUnits="userSpaceOnUse">
<stop stop-color="#B9FFF2" stop-opacity="0"/>
<stop offset="1" stop-color="#30FFDA"/>
</linearGradient>
<linearGradient id="paint6_linear" x1="191.566" y1="21.25" x2="191.566" y2="66.7664" gradientUnits="userSpaceOnUse">
<stop stop-color="#B9FFF2" stop-opacity="0"/>
<stop offset="1" stop-color="#30FFDA"/>
</linearGradient>
<linearGradient id="paint7_linear" x1="241.519" y1="33.572" x2="241.519" y2="104.231" gradientUnits="userSpaceOnUse">
<stop stop-color="#B9FFF2" stop-opacity="0"/>
<stop offset="1" stop-color="#30FFDA"/>
</linearGradient>
</defs>
</svg>
