<svg width="157" height="192" viewBox="0 0 157 192" fill="none" xmlns="http://www.w3.org/2000/svg">
<g filter="url(#filter0_d)">
<path fill-rule="evenodd" clip-rule="evenodd" d="M131.713 101.794C127.181 106.278 118.522 108.549 112.373 106.866C109.141 105.981 107.246 104.181 106.833 102.021L106.005 98.865L107.378 98.5049C107.824 97.5703 108.51 96.624 109.445 95.6997C113.977 91.2158 122.636 88.9452 128.785 90.6282C130.053 90.9752 131.115 91.4631 131.963 92.0583L133.343 91.6964L134.207 94.9928C134.241 95.1043 134.271 95.217 134.296 95.3308L134.312 95.3928L134.31 95.3935C134.721 97.3622 133.893 99.6379 131.713 101.794Z" fill="url(#paint0_radial)"/>
<circle r="11.5437" transform="matrix(-0.710881 0.703312 0.964527 0.263985 119.69 95.3587)" fill="url(#paint1_radial)"/>
<g style="mix-blend-mode:overlay">
<circle r="9.83092" transform="matrix(-0.710881 0.703312 0.964527 0.263985 119.644 95.4109)" fill="url(#paint2_radial)"/>
</g>
</g>
<g filter="url(#filter1_d)">
<path fill-rule="evenodd" clip-rule="evenodd" d="M44.9156 80.0389C38.8993 82.1485 30.1026 80.4902 25.2674 76.3348C22.7262 74.1509 21.785 71.7118 22.3374 69.5828L22.9417 66.3772L24.3365 66.6402C25.1404 65.987 26.1657 65.4259 27.4059 64.9909C33.4222 62.8813 42.219 64.5396 47.0541 68.695C48.0509 69.5516 48.8015 70.4476 49.3124 71.3486L50.7147 71.613L50.0831 74.9629C50.0659 75.0774 50.0444 75.1912 50.0188 75.3041L50.0067 75.3682L50.004 75.3676C49.5324 77.3228 47.809 79.0242 44.9156 80.0389Z" fill="url(#paint3_radial)"/>
<circle r="11.5437" transform="matrix(-0.943663 0.330908 0.758407 0.651782 36.8098 69.0726)" fill="url(#paint4_radial)"/>
<g style="mix-blend-mode:overlay">
<circle r="9.83092" transform="matrix(-0.943663 0.330908 0.758407 0.651782 36.745 69.0998)" fill="url(#paint5_radial)"/>
</g>
</g>
<g filter="url(#filter2_d)">
<path fill-rule="evenodd" clip-rule="evenodd" d="M97.7101 156.37C89.5845 164.409 74.0599 168.48 63.0351 165.462C57.2414 163.877 53.8433 160.649 53.1022 156.776L51.6184 151.118L54.08 150.472C54.8804 148.797 56.1104 147.1 57.7855 145.443C65.9111 137.404 81.4356 133.333 92.4605 136.35C94.7333 136.972 96.6375 137.847 98.1572 138.914L100.632 138.265L102.181 144.175C102.242 144.375 102.295 144.578 102.341 144.782L102.37 144.893L102.365 144.894C103.103 148.423 101.618 152.503 97.7101 156.37Z" fill="url(#paint6_radial)"/>
<ellipse rx="20.6964" ry="20.6964" transform="matrix(-0.710881 0.703312 0.964527 0.263985 76.1548 144.831)" fill="url(#paint7_radial)"/>
<g style="mix-blend-mode:overlay">
<ellipse rx="17.6257" ry="17.6257" transform="matrix(-0.710881 0.703312 0.964527 0.263985 76.0708 144.925)" fill="url(#paint8_radial)"/>
</g>
</g>
<g filter="url(#filter3_d)">
<path fill-rule="evenodd" clip-rule="evenodd" d="M92.3203 35.9656C87.5699 37.6314 80.624 36.322 76.8062 33.0409C74.7998 31.3166 74.0566 29.391 74.4926 27.7101L74.9698 25.1785L76.0712 25.3861C76.7059 24.8703 77.5154 24.4273 78.4948 24.0839C83.2451 22.4181 90.191 23.7275 94.0089 27.0086C94.7959 27.685 95.3886 28.3924 95.792 29.1038L96.8992 29.3126L96.4007 31.9567C96.387 32.0478 96.37 32.1382 96.3496 32.228L96.3402 32.2777L96.338 32.2773C95.9657 33.8211 94.6049 35.1645 92.3203 35.9656Z" fill="url(#paint9_radial)"/>
<circle r="9.11485" transform="matrix(-0.943663 0.330908 0.758407 0.651782 85.9198 27.3067)" fill="url(#paint10_radial)"/>
<g style="mix-blend-mode:overlay">
<ellipse rx="7.76245" ry="7.76245" transform="matrix(-0.943663 0.330908 0.758407 0.651782 85.8687 27.3282)" fill="url(#paint11_radial)"/>
</g>
</g>
<defs>
<filter id="filter0_d" x="84.8329" y="66.6844" width="71.4923" height="63.5443" filterUnits="userSpaceOnUse" color-interpolation-filters="sRGB">
<feFlood flood-opacity="0" result="BackgroundImageFix"/>
<feColorMatrix in="SourceAlpha" type="matrix" values="0 0 0 0 0 0 0 0 0 0 0 0 0 0 0 0 0 0 127 0"/>
<feOffset/>
<feGaussianBlur stdDeviation="10"/>
<feColorMatrix type="matrix" values="0 0 0 0 0.92 0 0 0 0 1 0 0 0 0 0 0 0 0 0.5 0"/>
<feBlend mode="normal" in2="BackgroundImageFix" result="effect1_dropShadow"/>
<feBlend mode="normal" in="SourceGraphic" in2="effect1_dropShadow" result="shape"/>
</filter>
<filter id="filter1_d" x="0.755249" y="40.6327" width="70.8111" height="62.5227" filterUnits="userSpaceOnUse" color-interpolation-filters="sRGB">
<feFlood flood-opacity="0" result="BackgroundImageFix"/>
<feColorMatrix in="SourceAlpha" type="matrix" values="0 0 0 0 0 0 0 0 0 0 0 0 0 0 0 0 0 0 127 0"/>
<feOffset/>
<feGaussianBlur stdDeviation="10"/>
<feColorMatrix type="matrix" values="0 0 0 0 0.92 0 0 0 0 1 0 0 0 0 0 0 0 0 0.5 0"/>
<feBlend mode="normal" in2="BackgroundImageFix" result="effect1_dropShadow"/>
<feBlend mode="normal" in="SourceGraphic" in2="effect1_dropShadow" result="shape"/>
</filter>
<filter id="filter2_d" x="29.5168" y="109.279" width="96.4618" height="82.2122" filterUnits="userSpaceOnUse" color-interpolation-filters="sRGB">
<feFlood flood-opacity="0" result="BackgroundImageFix"/>
<feColorMatrix in="SourceAlpha" type="matrix" values="0 0 0 0 0 0 0 0 0 0 0 0 0 0 0 0 0 0 127 0"/>
<feOffset/>
<feGaussianBlur stdDeviation="10"/>
<feColorMatrix type="matrix" values="0 0 0 0 0.92 0 0 0 0 1 0 0 0 0 0 0 0 0 0.5 0"/>
<feBlend mode="normal" in2="BackgroundImageFix" result="effect1_dropShadow"/>
<feBlend mode="normal" in="SourceGraphic" in2="effect1_dropShadow" result="shape"/>
</filter>
<filter id="filter3_d" x="53.2434" y="0.642611" width="64.3283" height="57.7838" filterUnits="userSpaceOnUse" color-interpolation-filters="sRGB">
<feFlood flood-opacity="0" result="BackgroundImageFix"/>
<feColorMatrix in="SourceAlpha" type="matrix" values="0 0 0 0 0 0 0 0 0 0 0 0 0 0 0 0 0 0 127 0"/>
<feOffset/>
<feGaussianBlur stdDeviation="10"/>
<feColorMatrix type="matrix" values="0 0 0 0 0.92 0 0 0 0 1 0 0 0 0 0 0 0 0 0.5 0"/>
<feBlend mode="normal" in2="BackgroundImageFix" result="effect1_dropShadow"/>
<feBlend mode="normal" in="SourceGraphic" in2="effect1_dropShadow" result="shape"/>
</filter>
<radialGradient id="paint0_radial" cx="0" cy="0" r="1" gradientUnits="userSpaceOnUse" gradientTransform="translate(120.579 98.747) rotate(15.3066) scale(11.5437 9.99713)">
<stop stop-color="#F2FF5C"/>
<stop offset="1" stop-color="#FFC700"/>
</radialGradient>
<radialGradient id="paint1_radial" cx="0" cy="0" r="1" gradientUnits="userSpaceOnUse" gradientTransform="translate(11.5437 11.5437) rotate(90) scale(11.5437)">
<stop stop-color="#E9FB18"/>
<stop offset="1" stop-color="#DDBC11"/>
</radialGradient>
<radialGradient id="paint2_radial" cx="0" cy="0" r="1" gradientUnits="userSpaceOnUse" gradientTransform="translate(9.83092 9.83092) rotate(90) scale(9.83092)">
<stop stop-color="#E9FB18"/>
<stop offset="1" stop-color="#DDBC11"/>
</radialGradient>
<radialGradient id="paint3_radial" cx="0" cy="0" r="1" gradientUnits="userSpaceOnUse" gradientTransform="translate(36.1608 72.5149) rotate(40.6761) scale(11.5437 9.99713)">
<stop stop-color="#F2FF5C"/>
<stop offset="1" stop-color="#FFC700"/>
</radialGradient>
<radialGradient id="paint4_radial" cx="0" cy="0" r="1" gradientUnits="userSpaceOnUse" gradientTransform="translate(11.5437 11.5437) rotate(90) scale(11.5437)">
<stop stop-color="#E9FB18"/>
<stop offset="1" stop-color="#DDBC11"/>
</radialGradient>
<radialGradient id="paint5_radial" cx="0" cy="0" r="1" gradientUnits="userSpaceOnUse" gradientTransform="translate(9.83092 9.83092) rotate(90) scale(9.83092)">
<stop stop-color="#E9FB18"/>
<stop offset="1" stop-color="#DDBC11"/>
</radialGradient>
<radialGradient id="paint6_radial" cx="0" cy="0" r="1" gradientUnits="userSpaceOnUse" gradientTransform="translate(77.7478 150.906) rotate(15.3066) scale(20.6964 17.9236)">
<stop stop-color="#F2FF5C"/>
<stop offset="1" stop-color="#FFC700"/>
</radialGradient>
<radialGradient id="paint7_radial" cx="0" cy="0" r="1" gradientUnits="userSpaceOnUse" gradientTransform="translate(20.6964 20.6964) rotate(90) scale(20.6964)">
<stop stop-color="#E9FB18"/>
<stop offset="1" stop-color="#DDBC11"/>
</radialGradient>
<radialGradient id="paint8_radial" cx="0" cy="0" r="1" gradientUnits="userSpaceOnUse" gradientTransform="translate(17.6257 17.6257) rotate(90) scale(17.6257)">
<stop stop-color="#E9FB18"/>
<stop offset="1" stop-color="#DDBC11"/>
</radialGradient>
<radialGradient id="paint9_radial" cx="0" cy="0" r="1" gradientUnits="userSpaceOnUse" gradientTransform="translate(85.4075 30.0248) rotate(40.6761) scale(9.11485 7.89369)">
<stop stop-color="#F2FF5C"/>
<stop offset="1" stop-color="#FFC700"/>
</radialGradient>
<radialGradient id="paint10_radial" cx="0" cy="0" r="1" gradientUnits="userSpaceOnUse" gradientTransform="translate(9.11485 9.11485) rotate(90) scale(9.11485)">
<stop stop-color="#E9FB18"/>
<stop offset="1" stop-color="#DDBC11"/>
</radialGradient>
<radialGradient id="paint11_radial" cx="0" cy="0" r="1" gradientUnits="userSpaceOnUse" gradientTransform="translate(7.76245 7.76245) rotate(90) scale(7.76245)">
<stop stop-color="#E9FB18"/>
<stop offset="1" stop-color="#DDBC11"/>
</radialGradient>
</defs>
</svg>
